<svg width="70" height="80" viewBox="0 0 70 80" fill="none" xmlns="http://www.w3.org/2000/svg">
<path d="M60.382 61.3339C60.7525 59.367 60.743 57.3473 60.354 55.3839L65.6973 42.4887C65.6979 42.4801 65.6979 42.4716 65.6973 42.463C66.5632 40.0924 67.8322 37.8892 69.4482 35.9507C69.8503 35.526 70.012 34.9276 69.8787 34.3582L67.6877 24.8965C67.6616 24.7976 67.6224 24.7026 67.571 24.6141C67.5617 24.5966 67.5582 24.5756 67.5489 24.5593C67.5395 24.543 67.4987 24.5033 67.4754 24.473C67.4276 24.4031 67.3725 24.3385 67.3109 24.2805C67.2703 24.2519 67.2278 24.2262 67.1837 24.2035C67.1268 24.1616 67.0663 24.1249 67.0029 24.0938C66.9149 24.0606 66.8232 24.0382 66.7299 24.0273C66.703 24.0273 66.6797 24.0098 66.6529 24.0075C66.4292 23.9926 66.2061 24.0424 66.01 24.151C65.9925 24.1603 65.9715 24.1638 65.954 24.1743H65.9424L57.7045 29.3158C57.2056 29.6247 56.896 30.1642 56.8808 30.7508C56.652 33.2698 55.9884 35.7302 54.9197 38.0227V38.0355L52.2491 44.4907C50.9384 43.7939 49.5353 43.2872 48.0818 42.9857C48.632 39.1881 48.8343 35.3482 48.6861 31.5138C50.8579 28.9081 51.9002 25.5436 51.5818 22.1665C50.8526 15.3671 44.7078 10.4566 44.4453 10.2501C44.0508 9.9394 43.5017 9.91603 43.0822 10.1921C42.6627 10.4681 42.4669 10.9817 42.5961 11.4669C43.197 13.7233 42.6766 16.1044 38.2386 21.001C36.2446 22.9263 35.6126 25.8661 36.6391 28.4408C37.0316 29.4256 37.5939 30.3338 38.3004 31.1241C38.0181 32.9267 37.7964 34.6335 37.6436 36.296C37.3804 39.0457 37.3126 41.8107 37.4406 44.57C36.3998 45.1343 35.4254 45.8132 34.5356 46.5942L28.8773 22.3975C28.8773 22.373 28.8539 22.3555 28.8469 22.3333C28.8279 22.2555 28.8005 22.18 28.7653 22.1081L22.9856 11.4343C22.4072 10.3659 21.1852 9.81692 20.0023 10.094C18.8195 10.371 17.9684 11.4055 17.9246 12.6196L17.4859 24.7471C17.4862 24.8347 17.4959 24.9219 17.5151 25.0073C17.5151 25.026 17.5151 25.0423 17.5151 25.0598L23.2877 49.6964C22.3771 49.7366 21.4731 49.8715 20.5904 50.0989L14.2402 34.763C13.731 33.5907 12.3805 33.0375 11.1952 33.5158L1.48968 37.5338C0.301853 38.0296 -0.262636 39.3916 0.226174 40.5823L8.83853 61.3584C3.79094 61.6234 -0.127125 65.8606 0.00315678 70.9135C0.133439 75.9664 4.26466 79.9961 9.3192 80.0006H60.6527C63.9872 79.9523 67.0426 78.1287 68.6679 75.2167C70.2933 72.3048 70.2417 68.7469 68.5326 65.8834C66.8235 63.0198 63.7165 61.2855 60.382 61.3339ZM59.1932 31.1358L64.0838 28.0838L62.3525 32.2652C62.1057 32.8605 62.3883 33.5432 62.9837 33.79C63.579 34.0368 64.2617 33.7542 64.5085 33.1588L66.2399 28.9775L67.536 34.5927C66.1492 36.2845 65.01 38.1649 64.1527 40.1775C62.9363 40.7413 61.5396 40.7706 60.3007 40.2582C59.0618 39.7458 58.0937 38.7385 57.631 37.4802C58.4504 35.4503 58.9764 33.3141 59.1932 31.1358ZM56.5098 40.2953C57.2817 41.239 58.2833 41.9682 59.4183 42.4128C60.3206 42.8009 61.291 43.0056 62.2732 43.0148C62.5095 43.014 62.7455 42.9996 62.9802 42.9717L59.2573 51.955C58.1426 49.4972 56.4181 47.3651 54.2477 45.7612L56.5098 40.2953ZM40.5265 31.963L46.3878 32.3211C46.424 33.4108 46.4111 34.5378 46.375 35.6823C44.4223 35.8218 42.46 35.7271 40.5299 35.4C40.3829 35.379 40.2394 35.3627 40.0936 35.3428C40.2103 34.2438 40.3526 33.1308 40.5241 31.963H40.5265ZM39.9699 22.5678C43.0675 19.1506 44.6728 16.5221 45.0461 14.0511C47.2726 16.3419 48.7423 19.2609 49.2566 22.4138C49.5017 25.1585 48.653 27.8889 46.8953 30.0111C44.5907 29.8711 42.3115 29.7311 40.0574 29.5911C39.0889 28.6857 38.5318 27.4243 38.5148 26.0986C38.4979 24.7729 39.0226 23.4977 39.9676 22.5678H39.9699ZM39.8813 37.668L40.2196 37.7123C41.7229 37.9448 43.2405 38.0739 44.7615 38.0985C45.2445 38.0985 45.7531 38.06 46.263 38.0203C46.1568 39.5218 45.983 41.0898 45.7625 42.7103C45.4743 42.6952 45.192 42.6672 44.9026 42.6672C43.1412 42.6703 41.393 42.9713 39.7319 43.5573C39.6782 41.593 39.7272 39.6272 39.8789 37.668H39.8813ZM30.8571 51.311L27.5192 37.0928C27.3632 36.476 26.7417 36.0979 26.1222 36.243C25.5027 36.3881 25.1136 37.0028 25.2477 37.6248L28.2473 50.422C27.4226 50.1271 26.5706 49.9149 25.7039 49.7885L20.5834 27.9368C21.3007 28.2634 22.0796 28.4329 22.8677 28.4338C22.9412 28.4338 23.0194 28.4233 23.0941 28.4198L23.9189 31.942C24.0078 32.3542 24.3122 32.6864 24.7152 32.8109C25.1182 32.9353 25.5569 32.8325 25.8627 32.5421C26.1686 32.2517 26.2938 31.8188 26.1904 31.41L25.3644 27.8855C26.156 27.535 26.8541 27.0035 27.4026 26.3338L32.6083 48.5927C31.9322 49.4359 31.3454 50.3469 30.8571 51.311ZM23.7287 25.9943C22.2367 26.2837 20.7132 25.6737 19.8332 24.4345L19.9814 20.3255C20.3873 20.4013 20.7993 20.4403 21.2122 20.4421C21.6111 20.4438 22.0088 20.3996 22.3976 20.3103C23.1846 20.1036 23.9208 19.7375 24.5606 19.2346L26.5252 22.8606C26.2912 24.3651 25.1967 25.5924 23.7287 25.9966V25.9943ZM20.5332 12.3653C20.6922 12.3285 20.8562 12.4019 20.9346 12.5449L23.4359 17.1708C22.9847 17.579 22.4459 17.8783 21.8609 18.0458C21.263 18.1555 20.6479 18.1264 20.0631 17.9606L20.2532 12.7036C20.2596 12.5406 20.3743 12.402 20.5332 12.3653ZM12.09 35.6672L12.9814 37.8208L8.6647 39.6082C8.15295 39.8231 7.86345 40.3688 7.97247 40.913C8.08148 41.4572 8.55883 41.8493 9.11386 41.8505C9.26715 41.8502 9.41891 41.8201 9.5607 41.7618L13.8774 39.9733L14.7699 42.1293L12.6104 43.0242C12.0957 43.2372 11.8034 43.7843 11.9124 44.3305C12.0214 44.8768 12.5014 45.2697 13.0584 45.2689C13.2113 45.2683 13.3626 45.2382 13.504 45.1802L15.6635 44.2853L16.5561 46.4414L12.2359 48.2322C11.7212 48.4452 11.4289 48.9923 11.5379 49.5385C11.6469 50.0848 12.1269 50.4778 12.6839 50.4769C12.8368 50.4764 12.9881 50.4463 13.1295 50.3882L17.4462 48.6009L18.3901 50.8794C14.5883 52.6146 11.8006 56.0077 10.8359 60.0739L2.37985 39.6852L12.09 35.6672ZM60.6527 77.6673H9.3192C5.4532 77.6673 2.31918 74.5333 2.31918 70.6673C2.31918 66.8013 5.4532 63.6672 9.3192 63.6672C9.9952 63.665 10.6678 63.7625 11.3154 63.9566C11.6652 64.0622 12.0443 63.9979 12.3397 63.7827C12.635 63.5676 12.8125 63.2264 12.8192 62.8611C12.9022 58.7031 15.3058 54.9416 19.0441 53.1194C22.7824 51.2972 27.2262 51.7211 30.5526 54.2172C30.8465 54.436 31.2262 54.504 31.5778 54.4008C31.9294 54.2976 32.212 54.0352 32.3411 53.6922C34.6204 47.6176 40.9201 44.0444 47.3035 45.2054C53.687 46.3665 58.325 51.929 58.3193 58.4172C58.3216 59.7515 58.123 61.0785 57.7302 62.3536C57.6075 62.7503 57.705 63.1823 57.9861 63.4879C58.2672 63.7935 58.6896 63.9267 59.0952 63.8376C59.6067 63.725 60.1289 63.6679 60.6527 63.6672C64.5187 63.6672 67.6527 66.8013 67.6527 70.6673C67.6527 74.5333 64.5187 77.6673 60.6527 77.6673Z" fill="#2FACF2"/>
<path d="M45.1183 8.31685C45.4845 8.31823 45.8301 8.14759 46.0516 7.85601C47.5082 5.88463 48.071 3.39271 47.6033 0.98666C47.5038 0.575261 47.1893 0.250024 46.7814 0.136791C46.3736 0.0235578 45.9364 0.140092 45.6391 0.441304C45.3417 0.742515 45.2308 1.18115 45.3493 1.5875C45.6286 3.29718 45.2118 5.04752 44.192 6.44784C43.9268 6.80136 43.8842 7.27434 44.0818 7.66959C44.2794 8.06484 44.6834 8.31451 45.1253 8.31451L45.1183 8.31685Z" fill="url(#paint0_linear_401_7)"/>
<path d="M43.5841 63.6679C42.7165 63.6706 41.8609 63.87 41.0816 64.2512C38.9828 61.3794 35.064 60.5381 31.9715 62.2955C28.8789 64.0528 27.596 67.85 28.989 71.1229C29.1723 71.5531 29.5948 71.8323 30.0624 71.8322C30.2196 71.8326 30.3752 71.8009 30.5197 71.7389C30.8044 71.6176 31.0292 71.3882 31.1447 71.1012C31.2603 70.8141 31.257 70.4929 31.1357 70.2082C30.8817 69.6162 30.7508 68.9788 30.7507 68.3346C30.7507 65.7572 32.8401 63.6679 35.4174 63.6679C37.2275 63.6589 38.8761 64.7078 39.6349 66.3512C39.6601 66.3892 39.6874 66.4258 39.7166 66.4609C39.735 66.5009 39.7556 66.5399 39.7784 66.5776C39.7994 66.6032 39.8297 66.6149 39.8531 66.6394C39.9078 66.6962 39.9684 66.7471 40.0339 66.7911C40.0922 66.8359 40.1547 66.875 40.2206 66.9077C40.2883 66.9361 40.3587 66.958 40.4306 66.9731C40.5023 66.9919 40.5758 67.0032 40.6499 67.0069C40.8015 67.0057 40.9519 66.9805 41.0956 66.9322C41.1267 66.9265 41.1574 66.9191 41.1877 66.9101C41.2256 66.8856 41.2618 66.8587 41.2962 66.8296C41.3382 66.8109 41.3791 66.7899 41.4187 66.7666C42.0316 66.271 42.7959 66.0008 43.5841 66.0012C44.9482 66.0035 46.1868 66.798 46.7574 68.0371C47.0248 68.6234 47.7169 68.882 48.3033 68.6146C48.8896 68.3472 49.1482 67.6551 48.8808 67.0687C47.9308 64.9981 45.8623 63.67 43.5841 63.6679Z" fill="url(#paint1_linear_401_7)"/>
<path d="M20.617 55.5595C20.4408 55.6166 16.319 57.0423 16.319 61.3333C16.319 61.9776 16.8413 62.5 17.4856 62.5C18.13 62.5 18.6523 61.9776 18.6523 61.3333C18.7475 59.7058 19.8184 58.2979 21.3613 57.7715C21.9734 57.5659 22.303 56.9031 22.0975 56.291C21.8919 55.6788 21.2291 55.3492 20.617 55.5548V55.5595Z" fill="url(#paint2_linear_401_7)"/>
<path d="M37.0361 54.299C37.1288 54.3225 37.224 54.3343 37.3196 54.334C37.8543 54.3335 38.3202 53.9695 38.4501 53.4508C38.9871 51.2723 40.9157 49.7226 43.1588 49.6673C43.8031 49.6657 44.3242 49.1421 44.3226 48.4977C44.3209 47.8534 43.7973 47.3324 43.153 47.334C39.8369 47.378 36.9714 49.6614 36.188 52.8838C36.0314 53.5088 36.4111 54.1424 37.0361 54.299Z" fill="url(#paint3_linear_401_7)"/>
<defs>
<linearGradient id="paint0_linear_401_7" x1="45.8614" y1="0.0942383" x2="45.8614" y2="8.31686" gradientUnits="userSpaceOnUse">
<stop stop-color="#91D7FF"/>
<stop offset="1" stop-color="#88B8FF"/>
</linearGradient>
<linearGradient id="paint1_linear_401_7" x1="38.7075" y1="61.3809" x2="38.7075" y2="71.8323" gradientUnits="userSpaceOnUse">
<stop stop-color="#91D7FF"/>
<stop offset="1" stop-color="#88B8FF"/>
</linearGradient>
<linearGradient id="paint2_linear_401_7" x1="19.2388" y1="55.4937" x2="19.2388" y2="62.5" gradientUnits="userSpaceOnUse">
<stop stop-color="#91D7FF"/>
<stop offset="1" stop-color="#88B8FF"/>
</linearGradient>
<linearGradient id="paint3_linear_401_7" x1="40.2376" y1="47.334" x2="40.2376" y2="54.334" gradientUnits="userSpaceOnUse">
<stop stop-color="#91D7FF"/>
<stop offset="1" stop-color="#88B8FF"/>
</linearGradient>
</defs>
</svg>
