<svg width="659" height="381" viewBox="0 0 659 381" fill="none" xmlns="http://www.w3.org/2000/svg">
<path opacity="0.25" d="M587.85 130.748C561.935 106.956 530.693 -36.5273 423.666 38.2015C368.371 76.813 275.133 5.05389 197.956 29.8383C127.079 52.6008 120.247 127.594 127.106 152.029C140.959 201.392 97.8518 208.74 57.8605 229.947C-4.86663 263.215 41.2592 380.13 100.521 380.687C159.783 381.248 518.794 379.575 518.794 379.575C518.794 379.575 604.884 379.81 640.682 328.671C679.207 273.638 654.786 192.202 587.85 130.748Z" fill="#EBF2F9"/>
<path d="M478.647 309.269H626.185V42.4682H478.647V309.269Z" fill="#AED3FF"/>
<path d="M621.556 42.4668H474.018V309.267H621.556V42.4668Z" fill="#D2E4FF"/>
<path d="M611.863 57.3745H484.069V150.306H611.863V57.3745Z" fill="#F3F9FF"/>
<path d="M609.659 237.512H541.072V287.13H609.659V237.512Z" fill="#F3F9FF"/>
<path d="M489.337 104.803C489.337 104.803 511.157 101.878 524.489 115.097C537.821 128.317 562.662 116.268 572.662 115.097C590.052 113.061 603.681 119.182 607.724 125.914V146.106H489.337V104.803Z" fill="#EE9849"/>
<path d="M507.163 72.3101H506.25V103.838H507.163V72.3101Z" fill="#A6C7F9"/>
<path d="M543.042 85.8379H542.129V117.366H543.042V85.8379Z" fill="#A6C7F9"/>
<path d="M580.069 78.7031H579.156V110.231H580.069V78.7031Z" fill="#A6C7F9"/>
<path d="M517.371 77.1457H510.361C509.941 77.1457 509.601 76.776 509.601 76.327C509.601 75.8751 509.944 75.5083 510.361 75.5083H517.371C517.791 75.5083 518.132 75.878 518.132 76.327C518.132 76.7789 517.791 77.1457 517.371 77.1457Z" fill="#A6C7F9"/>
<path d="M517.371 80.0989H510.361C509.941 80.0989 509.601 79.7291 509.601 79.2801C509.601 78.8282 509.944 78.4614 510.361 78.4614H517.371C517.791 78.4614 518.132 78.8312 518.132 79.2801C518.132 79.7321 517.791 80.0989 517.371 80.0989Z" fill="#A6C7F9"/>
<path d="M552.72 93.2185H545.711C545.291 93.2185 544.95 92.8488 544.95 92.3998C544.95 91.9479 545.293 91.5811 545.711 91.5811H552.72C553.14 91.5811 553.481 91.9508 553.481 92.3998C553.481 92.8488 553.14 93.2185 552.72 93.2185Z" fill="#A6C7F9"/>
<path d="M552.72 96.1087H545.711C545.291 96.1087 544.95 95.7389 544.95 95.2899C544.95 94.838 545.293 94.4712 545.711 94.4712H552.72C553.14 94.4712 553.481 94.8409 553.481 95.2899C553.481 95.7418 553.14 96.1087 552.72 96.1087Z" fill="#A6C7F9"/>
<path d="M590.353 81.3279H583.344C582.924 81.3279 582.583 80.9581 582.583 80.5092C582.583 80.0572 582.927 79.6904 583.344 79.6904H590.353C590.773 79.6904 591.114 80.0602 591.114 80.5092C591.117 80.9611 590.773 81.3279 590.353 81.3279Z" fill="#A6C7F9"/>
<path d="M590.353 84.2209H583.344C582.924 84.2209 582.583 83.8511 582.583 83.4022C582.583 82.9503 582.927 82.5835 583.344 82.5835H590.353C590.773 82.5835 591.114 82.9532 591.114 83.4022C591.117 83.8511 590.773 84.2209 590.353 84.2209Z" fill="#A6C7F9"/>
<path d="M599.245 187.655C606.214 187.655 611.863 181.575 611.863 174.075C611.863 166.574 606.214 160.494 599.245 160.494C592.277 160.494 586.627 166.574 586.627 174.075C586.627 181.575 592.277 187.655 599.245 187.655Z" fill="#F3F9FF"/>
<path d="M610.794 174.075C610.794 180.939 605.625 186.506 599.245 186.506C596.235 186.506 593.492 185.267 591.439 183.237L599.245 174.078V161.648C605.625 161.645 610.794 167.212 610.794 174.075Z" fill="#C65447"/>
<path d="M594.847 171.885H590.7C590.509 171.885 590.353 171.718 590.353 171.513C590.353 171.307 590.509 171.14 590.7 171.14H594.847C595.037 171.14 595.193 171.307 595.193 171.513C595.196 171.718 595.037 171.885 594.847 171.885Z" fill="#A6C7F9"/>
<path d="M567.917 187.655C574.886 187.655 580.535 181.575 580.535 174.075C580.535 166.574 574.886 160.494 567.917 160.494C560.949 160.494 555.299 166.574 555.299 174.075C555.299 181.575 560.949 187.655 567.917 187.655Z" fill="#F3F9FF"/>
<path d="M567.916 174.075L575.013 183.882C573.055 185.525 570.593 186.505 567.916 186.505C561.536 186.505 556.366 180.941 556.366 174.075C556.366 167.211 561.536 161.645 567.916 161.645C573.938 161.645 578.884 166.607 579.416 172.939L567.916 174.075Z" fill="#E57970"/>
<path d="M576.81 177.147H573.923C573.732 177.147 573.576 176.98 573.576 176.775C573.576 176.569 573.732 176.402 573.923 176.402H576.81C577.001 176.402 577.156 176.569 577.156 176.775C577.156 176.98 577.001 177.147 576.81 177.147Z" fill="#A6C7F9"/>
<path d="M586.624 211.479C586.624 203.979 592.273 197.898 599.242 197.898C606.211 197.898 611.86 203.979 611.86 211.479C611.86 218.98 606.211 225.06 599.242 225.06C592.273 225.06 586.624 218.98 586.624 211.479Z" fill="#F3F9FF"/>
<path d="M610.794 211.479C610.794 218.343 605.625 223.91 599.245 223.91C596.235 223.91 593.492 222.671 591.439 220.641L599.245 211.482V199.052C605.625 199.049 610.794 204.615 610.794 211.479Z" fill="#EE9849"/>
<path d="M594.847 209.29H590.7C590.509 209.29 590.354 209.122 590.354 208.917C590.354 208.712 590.509 208.544 590.7 208.544H594.847C595.038 208.544 595.193 208.712 595.193 208.917C595.196 209.12 595.038 209.29 594.847 209.29Z" fill="#A6C7F9"/>
<path d="M555.299 211.479C555.299 203.979 560.948 197.898 567.917 197.898C574.886 197.898 580.535 203.979 580.535 211.479C580.535 218.98 574.886 225.06 567.917 225.06C560.948 225.06 555.299 218.98 555.299 211.479Z" fill="#F3F9FF"/>
<path d="M579.416 210.344C578.884 204.011 573.938 199.049 567.916 199.049C561.536 199.049 556.366 204.613 556.366 211.479C556.366 218.343 561.536 223.909 567.916 223.909C570.59 223.909 573.055 222.932 575.013 221.286L567.916 211.479L579.416 210.344Z" fill="#C65447"/>
<path d="M576.81 214.552H573.923C573.732 214.552 573.576 214.384 573.576 214.179C573.576 213.973 573.732 213.806 573.923 213.806H576.81C577.001 213.806 577.156 213.973 577.156 214.179C577.156 214.384 577.001 214.552 576.81 214.552Z" fill="#A6C7F9"/>
<path d="M606.702 283.66H543.749V243.625H544.531V282.818H606.702V283.66Z" fill="#A6C7F9"/>
<path d="M563.428 269.184C555.721 262.581 547.525 269.184 547.525 269.184V280.473H605.14V251.295C589.482 251.721 571.133 275.786 563.428 269.184Z" fill="#A6C7F9"/>
<path d="M548.184 246.679H575.032C575.394 246.679 575.691 246.359 575.691 245.969C575.691 245.579 575.394 245.259 575.032 245.259H548.184C547.822 245.259 547.524 245.579 547.524 245.969C547.524 246.359 547.822 246.679 548.184 246.679Z" fill="#A6C7F9"/>
<path d="M548.185 250.148H575.032C575.395 250.148 575.692 249.828 575.692 249.438C575.692 249.047 575.395 248.728 575.032 248.728H548.185C547.822 248.728 547.525 249.047 547.525 249.438C547.525 249.831 547.822 250.148 548.185 250.148Z" fill="#A6C7F9"/>
<path d="M548.065 253.426H565.841C566.138 253.426 566.381 253.165 566.381 252.845V252.587C566.381 252.267 566.138 252.006 565.841 252.006H548.065C547.768 252.006 547.525 252.267 547.525 252.587V252.845C547.525 253.162 547.77 253.426 548.065 253.426Z" fill="#A6C7F9"/>
<path d="M449.606 0.997559H247.735V328.667H449.606V0.997559Z" fill="#D2E4FF"/>
<path d="M429.768 19.3262H267.24V214.306H429.768V19.3262Z" fill="#F3F9FF"/>
<path d="M328.304 284.204C332.196 267.341 322.65 250.276 306.983 246.087C291.316 241.898 275.46 252.171 271.568 269.034C267.676 285.896 277.221 302.962 292.888 307.151C308.556 311.34 324.412 301.066 328.304 284.204Z" fill="#F3F9FF"/>
<path d="M324.633 276.601C324.633 261.914 313.572 250.006 299.927 250.006C286.278 250.006 275.217 261.914 275.217 276.601C275.217 291.288 286.278 303.196 299.927 303.196C305.565 303.196 310.756 301.166 314.911 297.747L299.927 276.601L323.017 286.085C324.061 283.139 324.633 279.944 324.633 276.601Z" fill="#EE9849"/>
<path d="M427.899 284.204C431.792 267.341 422.246 250.276 406.579 246.087C390.912 241.898 375.056 252.171 371.164 269.034C367.272 285.896 376.817 302.962 392.484 307.151C408.151 311.34 424.007 301.066 427.899 284.204Z" fill="#F3F9FF"/>
<path d="M399.515 250.006C385.867 250.006 374.805 261.914 374.805 276.601C374.805 283.87 377.513 290.455 381.905 295.256L399.515 276.601L422.603 286.085C423.647 283.139 424.219 279.944 424.219 276.601C424.222 261.914 413.161 250.006 399.515 250.006Z" fill="#EE9849"/>
<path d="M395.905 263.099H385.387C384.972 263.099 384.634 263.463 384.634 263.906C384.634 264.352 384.972 264.716 385.387 264.716H395.905C396.32 264.716 396.658 264.352 396.658 263.906C396.655 263.463 396.317 263.099 395.905 263.099Z" fill="#DD7C2C"/>
<path d="M395.904 265.661H385.385C384.971 265.661 384.633 266.025 384.633 266.471C384.633 266.917 384.971 267.28 385.385 267.28H395.904C396.318 267.28 396.656 266.917 396.656 266.471C396.654 266.025 396.316 265.661 395.904 265.661Z" fill="#DD7C2C"/>
<path d="M389.729 268.219H385.385C384.971 268.219 384.633 268.583 384.633 269.029C384.633 269.472 384.971 269.836 385.385 269.836H389.729C390.143 269.836 390.481 269.472 390.481 269.029C390.481 268.583 390.143 268.219 389.729 268.219Z" fill="#DD7C2C"/>
<path d="M296.114 263.1H285.595C285.181 263.1 284.843 263.464 284.843 263.907C284.843 264.353 285.181 264.717 285.595 264.717H296.114C296.525 264.717 296.863 264.353 296.863 263.907C296.863 263.464 296.525 263.1 296.114 263.1Z" fill="#DD7C2C"/>
<path d="M296.113 265.662H285.595C285.18 265.662 284.842 266.026 284.842 266.472C284.842 266.918 285.18 267.282 285.595 267.282H296.113C296.525 267.282 296.863 266.918 296.863 266.472C296.863 266.026 296.525 265.662 296.113 265.662Z" fill="#DD7C2C"/>
<path d="M289.938 268.221H285.595C285.18 268.221 284.842 268.585 284.842 269.031C284.842 269.474 285.18 269.838 285.595 269.838H289.938C290.352 269.838 290.69 269.474 290.69 269.031C290.69 268.585 290.352 268.221 289.938 268.221Z" fill="#DD7C2C"/>
<path d="M298.865 89.0083H281.713V203.998H298.865V89.0083Z" fill="#A6C7F9"/>
<path d="M326.964 56.9556H309.812V203.998H326.964V56.9556Z" fill="#A6C7F9"/>
<path d="M357.622 116.818H340.47V204.001H357.622V116.818Z" fill="#A6C7F9"/>
<path d="M387.456 76.5864H370.304V203.997H387.456V76.5864Z" fill="#A6C7F9"/>
<path d="M417.443 133.881H400.291V204H417.443V133.881Z" fill="#A6C7F9"/>
<path d="M386.638 60.0088H372.114C371.288 60.0088 370.612 60.7365 370.612 61.6257C370.612 62.5148 371.288 63.2425 372.114 63.2425H386.638C387.464 63.2425 388.14 62.5148 388.14 61.6257C388.14 60.7365 387.464 60.0088 386.638 60.0088Z" fill="#A6C7F9"/>
<path d="M375.421 65.8955H372.114C371.288 65.8955 370.612 66.6233 370.612 67.5124C370.612 68.4015 371.288 69.1293 372.114 69.1293H375.421C376.247 69.1293 376.924 68.4015 376.924 67.5124C376.924 66.6233 376.247 65.8955 375.421 65.8955Z" fill="#A6C7F9"/>
<path d="M326.788 34.9658H312.264C311.438 34.9658 310.762 35.6936 310.762 36.5827C310.762 37.4719 311.438 38.1996 312.264 38.1996H326.788C327.614 38.1996 328.29 37.4719 328.29 36.5827C328.29 35.6936 327.614 34.9658 326.788 34.9658Z" fill="#A6C7F9"/>
<path d="M315.571 40.8496H312.264C311.438 40.8496 310.762 41.5774 310.762 42.4665C310.762 43.3557 311.438 44.0834 312.264 44.0834H315.571C316.397 44.0834 317.073 43.3557 317.073 42.4665C317.073 41.5774 316.397 40.8496 315.571 40.8496Z" fill="#A6C7F9"/>
<path d="M356.306 99.6523H341.782C340.956 99.6523 340.28 100.38 340.28 101.269C340.28 102.158 340.956 102.886 341.782 102.886H356.306C357.132 102.886 357.808 102.158 357.808 101.269C357.808 100.38 357.132 99.6523 356.306 99.6523Z" fill="#A6C7F9"/>
<path d="M345.089 105.538H341.782C340.956 105.538 340.28 106.265 340.28 107.155C340.28 108.044 340.956 108.771 341.782 108.771H345.089C345.916 108.771 346.592 108.044 346.592 107.155C346.592 106.265 345.916 105.538 345.089 105.538Z" fill="#A6C7F9"/>
<path d="M416.127 116.816H401.603C400.777 116.816 400.101 117.544 400.101 118.433C400.101 119.322 400.777 120.05 401.603 120.05H416.127C416.953 120.05 417.629 119.322 417.629 118.433C417.629 117.544 416.953 116.816 416.127 116.816Z" fill="#A6C7F9"/>
<path d="M404.91 122.7H401.603C400.777 122.7 400.101 123.428 400.101 124.317C400.101 125.206 400.777 125.934 401.603 125.934H404.91C405.736 125.934 406.412 125.206 406.412 124.317C406.412 123.428 405.736 122.7 404.91 122.7Z" fill="#A6C7F9"/>
<path d="M220.497 125.204H72.9586V214.602H220.497V125.204Z" fill="#AED3FF"/>
<path d="M225.292 125.204H77.7539V214.602H225.292V125.204Z" fill="#D2E4FF"/>
<path d="M136.969 188.182C147.387 176.97 147.387 158.791 136.969 147.579C126.552 136.367 109.662 136.367 99.2449 147.579C88.8276 158.791 88.8276 176.97 99.2449 188.182C109.662 199.394 126.552 199.394 136.969 188.182Z" fill="#F3F9FF"/>
<path d="M208.707 151.843H164.514C162.914 151.843 161.602 153.255 161.602 154.977C161.602 156.703 162.914 158.111 164.514 158.111H208.707C210.31 158.111 211.619 156.7 211.619 154.977C211.619 153.255 210.307 151.843 208.707 151.843Z" fill="#F3F9FF"/>
<path d="M208.707 164.749H164.514C162.914 164.749 161.602 166.16 161.602 167.883C161.602 169.606 162.914 171.017 164.514 171.017H208.707C210.31 171.017 211.619 169.606 211.619 167.883C211.619 166.158 210.307 164.749 208.707 164.749Z" fill="#F3F9FF"/>
<path d="M208.707 177.655H164.514C162.914 177.655 161.602 179.066 161.602 180.789C161.602 182.511 162.914 183.923 164.514 183.923H208.707C210.31 183.923 211.619 182.511 211.619 180.789C211.619 179.063 210.307 177.655 208.707 177.655Z" fill="#F3F9FF"/>
<path d="M93.6786 167.466H118.102V141.177C104.614 141.177 93.6786 152.947 93.6786 167.466Z" fill="#A8D29F"/>
<path d="M142.528 168.311H118.105H93.6786C93.6786 182.828 104.614 194.598 118.102 194.598C131.592 194.598 142.528 182.828 142.528 168.311Z" fill="#F1A34F"/>
<path d="M113.889 153.949H100.636C99.8806 153.949 99.2644 154.612 99.2644 155.425C99.2644 156.238 99.8806 156.901 100.636 156.901H113.892C114.647 156.901 115.263 156.238 115.263 155.425C115.26 154.612 114.644 153.949 113.889 153.949Z" fill="#82B378"/>
<path d="M103.654 159.32H100.636C99.8806 159.32 99.2644 159.983 99.2644 160.796C99.2644 161.609 99.8806 162.272 100.636 162.272H103.654C104.409 162.272 105.025 161.609 105.025 160.796C105.025 159.986 104.406 159.32 103.654 159.32Z" fill="#82B378"/>
<path d="M133.569 174.737H120.313C119.558 174.737 118.942 175.4 118.942 176.213C118.942 177.026 119.558 177.689 120.313 177.689H133.569C134.324 177.689 134.94 177.026 134.94 176.213C134.94 175.4 134.324 174.737 133.569 174.737Z" fill="#DD8936"/>
<path d="M123.331 180.106H120.312C119.557 180.106 118.941 180.77 118.941 181.582C118.941 182.395 119.557 183.059 120.312 183.059H123.331C124.086 183.059 124.702 182.395 124.702 181.582C124.702 180.773 124.086 180.106 123.331 180.106Z" fill="#DD8936"/>
<path d="M62.5686 230.61V322.036H210.107V230.61H62.5686Z" fill="#AED3FF"/>
<path d="M67.3652 230.609V322.035H214.904V230.609H67.3652Z" fill="#D2E4FF"/>
<path d="M134.249 276.397C135.73 260.621 125.048 246.541 110.391 244.947C95.7336 243.353 82.6512 254.85 81.1706 270.626C79.69 286.401 90.3718 300.482 105.029 302.075C119.686 303.669 132.769 292.172 134.249 276.397Z" fill="#F3F9FF"/>
<path d="M154.127 263.728H198.32C199.921 263.728 201.232 262.316 201.232 260.593C201.232 258.871 199.921 257.459 198.32 257.459H154.127C152.524 257.459 151.216 258.871 151.216 260.593C151.216 262.316 152.524 263.728 154.127 263.728Z" fill="#F3F9FF"/>
<path d="M198.32 270.365H154.127C152.524 270.365 151.216 271.777 151.216 273.499C151.216 275.222 152.527 276.633 154.127 276.633H198.32C199.921 276.633 201.232 275.222 201.232 273.499C201.232 271.774 199.921 270.365 198.32 270.365Z" fill="#F3F9FF"/>
<path d="M198.32 283.271H154.127C152.524 283.271 151.216 284.683 151.216 286.405C151.216 288.128 152.527 289.539 154.127 289.539H198.32C199.921 289.539 201.232 288.128 201.232 286.405C201.232 284.68 199.921 283.271 198.32 283.271Z" fill="#F3F9FF"/>
<path d="M107.716 273.966L83.2923 273.631C83.2895 273.743 83.2896 273.854 83.2896 273.966C83.2896 288.483 94.2253 300.256 107.716 300.256C112.539 300.256 117.032 298.75 120.822 296.153L107.716 273.966Z" fill="#F1A34F"/>
<path d="M108.618 282.244H95.3624C94.6071 282.244 93.991 282.907 93.991 283.72C93.991 284.533 94.6071 285.196 95.3624 285.196H108.618C109.374 285.196 109.99 284.533 109.99 283.72C109.99 282.907 109.371 282.244 108.618 282.244Z" fill="#DD8936"/>
<path d="M98.3805 287.615H95.3624C94.6071 287.615 93.991 288.278 93.991 289.091C93.991 289.904 94.6071 290.567 95.3624 290.567H98.3805C99.1358 290.567 99.752 289.904 99.752 289.091C99.752 288.278 99.1358 287.615 98.3805 287.615Z" fill="#DD8936"/>
<path d="M210.11 27.7065H62.5686V110.555H210.11V27.7065Z" fill="#AED3FF"/>
<path d="M214.904 27.7061H67.3652V110.554H214.904V27.7061Z" fill="#D2E4FF"/>
<path d="M126.577 90.6485C136.994 79.4364 136.994 61.258 126.577 50.0459C116.159 38.8338 99.2696 38.8338 88.8523 50.0459C78.435 61.258 78.435 79.4364 88.8523 90.6485C99.2696 101.861 116.159 101.861 126.577 90.6485Z" fill="#F3F9FF"/>
<path d="M107.713 44.0601C94.2253 44.0601 83.2896 55.8272 83.2896 70.3469C83.2896 80.2917 88.4234 88.9483 95.992 93.4116C99.9044 85.6119 107.713 70.3469 107.713 70.3469L119.278 93.5026C126.934 89.0657 132.136 80.3592 132.136 70.3469C132.136 55.8301 121.201 44.0601 107.713 44.0601Z" fill="#A8D29F"/>
<path d="M198.32 54.3081H154.127C152.527 54.3081 151.216 55.7196 151.216 57.4421C151.216 59.1646 152.527 60.5761 154.127 60.5761H198.32C199.921 60.5761 201.232 59.1646 201.232 57.4421C201.232 55.7196 199.921 54.3081 198.32 54.3081Z" fill="#F3F9FF"/>
<path d="M198.32 67.2134H154.127C152.527 67.2134 151.216 68.6249 151.216 70.3474C151.216 72.0699 152.527 73.4814 154.127 73.4814H198.32C199.921 73.4814 201.232 72.0699 201.232 70.3474C201.232 68.6219 199.921 67.2134 198.32 67.2134Z" fill="#F3F9FF"/>
<path d="M198.32 80.1196H154.127C152.527 80.1196 151.216 81.5311 151.216 83.2536C151.216 84.9761 152.527 86.3876 154.127 86.3876H198.32C199.921 86.3876 201.232 84.9761 201.232 83.2536C201.232 81.5282 199.921 80.1196 198.32 80.1196Z" fill="#F3F9FF"/>
<path d="M108.618 57.7905H95.3624C94.6071 57.7905 93.991 58.4537 93.991 59.2666C93.991 60.0794 94.6071 60.7426 95.3624 60.7426H108.618C109.374 60.7426 109.99 60.0794 109.99 59.2666C109.99 58.4567 109.371 57.7905 108.618 57.7905Z" fill="#82B378"/>
<path d="M98.3805 63.1631H95.3624C94.6071 63.1631 93.991 63.8263 93.991 64.6391C93.991 65.4519 94.6071 66.1151 95.3624 66.1151H98.3805C99.1358 66.1151 99.752 65.4519 99.752 64.6391C99.752 63.8263 99.1358 63.1631 98.3805 63.1631Z" fill="#82B378"/>
<path d="M249.121 170.782C249.121 170.782 266.33 189.903 267.156 197.113C267.982 204.323 258.968 215.603 258.968 215.603L249.121 170.782Z" fill="#E58638"/>
<path d="M241.763 369.149C241.763 369.149 241.177 379.314 239.35 379.461C239.108 379.481 230.083 379.481 230.083 379.481L218.564 379.408C218.564 379.408 218.64 376.421 222.007 375.79C225.374 375.159 231.01 372.612 233.052 367.82C235.192 362.781 241.763 369.149 241.763 369.149Z" fill="#163560"/>
<path d="M267.421 369.149C267.421 369.149 266.835 379.314 265.008 379.461C264.765 379.481 255.741 379.481 255.741 379.481L244.186 379.437C244.186 379.437 244.295 376.421 247.665 375.79C251.032 375.159 256.671 372.612 258.71 367.82C260.853 362.781 267.421 369.149 267.421 369.149Z" fill="#163560"/>
<path d="M229.003 260.139C229.003 260.139 232.015 280.88 243.256 317.699C254.497 354.517 256.03 370.46 256.03 370.46C256.03 370.46 259.07 370.936 262.281 370.936C264.313 370.936 268.089 370.096 268.089 370.096C268.089 370.096 268.192 329.856 263.012 311.343C257.832 292.829 261.894 244.596 261.894 244.596L229.003 260.139Z" fill="#163560"/>
<path d="M223.137 245.731C223.137 245.731 222.709 276.986 227.734 315.362C232.759 353.739 231.055 370.028 231.055 370.028C231.055 370.028 235.191 370.826 236.644 370.879C238.201 370.935 243.089 370.46 243.089 370.46C243.089 370.46 250.281 332.068 248.217 312.859C246.154 293.65 258.065 246.946 258.065 246.946L223.137 245.731Z" fill="#1C468A"/>
<path d="M246.43 172.59L240.754 177.114L232.55 175.257C232.664 174.453 233.204 171.116 233.698 168.094C233.728 167.915 233.758 167.739 233.785 167.563C234.207 164.992 234.573 162.783 234.573 162.783L242.234 158.674L245.091 157.143C245.083 157.195 244.87 159.998 244.84 160.406C244.306 167.657 246.43 172.59 246.43 172.59Z" fill="#FFB27D"/>
<path d="M233.124 170.307C233.304 170.225 244.284 166.739 245.475 167.161C246.666 167.584 247.373 170.069 247.373 170.069L229.416 174.439C229.416 174.439 230.831 171.346 233.124 170.307Z" fill="#E58638"/>
<path d="M262.687 249.59C260.825 258.727 229.856 259.81 221.873 251.517C220.965 250.573 220.921 246.174 221.262 240.243C221.933 228.658 224.084 211.227 224.166 202.321C224.206 198.022 224.754 193.624 225.488 189.63C227.045 181.117 229.417 174.438 229.417 174.438C229.417 174.438 244.543 169.174 247.376 170.069C261.011 174.382 264.55 240.455 262.687 249.59Z" fill="#EE9849"/>
<path d="M221.262 240.243C221.932 228.657 224.083 211.227 224.165 202.321C224.206 198.022 224.754 193.623 225.488 189.629L234.588 187.901C234.588 187.901 243.485 227.014 221.262 240.243Z" fill="#E58638"/>
<path d="M226.191 224.091C226.191 224.091 226.812 225.687 225.509 226.758C224.206 227.83 223.36 229.567 223.66 230.834C223.958 232.102 226.818 234.171 227.807 233.839C228.797 233.505 230.815 231.835 230.596 231.166C230.378 230.497 231.951 225.294 229.539 223.29C227.12 221.289 226.191 224.091 226.191 224.091Z" fill="#FFB27D"/>
<path d="M236.367 172.095C236.367 172.095 227.493 173.882 220.42 185.097C213.348 196.313 208.697 204.652 210 208.696C211.303 212.74 223.177 226.758 225.224 226.758C227.272 226.758 230.574 225.155 230.762 221.549C230.762 221.549 222.402 208.062 224.049 206.043C224.753 205.181 234.903 196.313 236.351 200.318C238.747 206.947 236.367 172.095 236.367 172.095Z" fill="#EE9849"/>
<path d="M244.265 160.531C242.582 163.996 236.312 166.992 233.697 168.093C233.727 167.914 233.757 167.738 233.784 167.562C234.207 164.991 234.572 162.781 234.572 162.781L242.233 158.673C243.929 158.644 244.96 159.105 244.265 160.531Z" fill="#FCA56B"/>
<path d="M232.108 162.967C232.108 162.967 243.45 166.776 245.544 159.138C247.638 151.5 250.512 146.848 243.36 144.093C236.209 141.338 233.995 143.805 232.719 146.171C231.446 148.536 229.213 161.779 232.108 162.967Z" fill="#FFB27D"/>
<path d="M233.162 145.434C233.162 145.434 233.885 154.323 235.594 153.936C237.301 153.551 238.852 153.264 238.602 155.943C238.351 158.622 235.984 161.715 241.246 162.19C246.508 162.666 254.077 148.055 252.629 145.288C248.458 137.309 227.132 135.698 233.162 145.434Z" fill="#163560"/>
<path d="M28.9774 351.978L32.4291 367.63L37.6011 367.598L37.7919 351.978H28.9774Z" fill="#FFB27D"/>
<path d="M72.4813 352.645L82.3047 367.632L86.1326 362.338L80.2217 350.585L72.4813 352.645Z" fill="#FFB27D"/>
<path d="M46.9383 146.307C45.1525 145.215 43.0122 145.095 41.5181 145.192C41.9026 144.763 42.6605 144.608 42.6605 144.608C41.7335 144.458 39.6614 145.45 39.6614 145.45C26.7518 140.097 24.7233 160.553 24.9959 165.307C25.2659 170.061 20.6582 171.61 13.943 175.355C1.12602 182.497 0 192.064 0 192.064C0.100878 192.128 0.204483 192.199 0.316266 192.281C0.951525 191.122 2.26021 188.944 3.36442 188.616C3.32352 188.721 2.06118 191.612 1.58951 193.27C5.37107 196.365 12.4407 203.223 17.3701 208.086C17.3483 207.135 17.3837 205.785 17.7055 205.075L18.3135 209.022C20.9499 211.63 22.7684 213.467 22.7684 213.467C22.4413 209.626 38.9062 189.358 47.4972 183.29C49.5884 179.977 50.3327 174.122 50.3872 173.662C50.0273 178.304 49.2885 180.907 48.6287 182.371C55.9055 175.167 51.6686 149.2 46.9383 146.307Z" fill="#163560"/>
<path d="M46.991 183.593C47.0346 183.613 42.8441 185.955 39.6923 185.028C36.7287 184.159 34.7902 180.018 34.8311 180.01C36.088 179.74 36.4479 177.885 36.4233 169.903L36.9904 170.024L46.5357 172.057C46.5357 172.057 46.3176 175.291 46.3121 178.334C46.3039 180.893 46.4457 183.32 46.991 183.593Z" fill="#FFB27D"/>
<path d="M36.1954 149.655C36.1954 149.655 40.904 144.261 46.8149 149.379C46.8149 149.379 43.3741 148.739 36.1954 149.655Z" fill="#E37970"/>
<path d="M46.5323 172.057C46.5323 172.057 46.3142 175.291 46.3088 178.334C40.9677 178.172 38.1458 172.929 36.9871 170.021L46.5323 172.057Z" fill="#D68D5D"/>
<path d="M36.001 168.904C36.001 168.904 33.2009 164.144 32.5302 160.074C32.0504 157.169 33.4245 146.397 43.4823 147.949C43.4823 147.949 46.4024 148.26 49.1479 150.255C51.3318 151.843 54.4835 155.27 50.9582 164.667L50.0422 167.842L36.001 168.904Z" fill="#163560"/>
<path d="M84.573 358.232L79.5127 358.399L74.0353 358.581C74.0353 358.581 61.3874 343.424 54.2905 319.124C54.1242 318.561 53.9497 317.989 53.767 317.411C49.8846 305.224 41.8334 289.927 37.5911 276.082C36.9149 273.875 36.3097 271.8 35.7644 269.834C35.5899 269.206 35.4209 268.587 35.26 267.98C32.1328 256.289 31.2276 248.612 30.3933 240.411L61.0248 240.675C61.0275 240.672 65.9733 296.676 84.573 358.232Z" fill="#80BDCC"/>
<path d="M56.7414 221.728C56.6651 237.416 58.879 244.147 58.879 244.147C58.879 244.147 45.7621 251.319 30.175 246.04C29.9923 245.978 17.2681 242.853 17.2681 242.853C17.5298 242.219 19.85 231.646 20.1036 231.062C23.3944 223.456 25.8945 220.12 26.2844 217.781C27.0096 213.415 27.0233 208.899 26.6634 204.638C25.7118 193.358 22.8845 183.997 22.8845 183.997C27.1323 182.958 31.2192 181.177 35.6415 179.393C36.6585 180.754 39.6576 182.134 42.354 182.069C45.4594 181.996 46.43 180.581 46.3155 178.991C49.6254 180.971 52.2537 182.858 52.2537 182.858C55.0674 188.117 60.7684 193.223 61.1828 201.287C61.2837 203.267 56.7442 221.291 56.7414 221.728Z" fill="#E7F1FD"/>
<path d="M30.3996 223.476C29.0609 225.515 26.4926 237.914 20.1073 239.472C23.3981 230.636 25.8983 226.763 26.2881 224.045C27.0134 218.975 27.027 213.728 26.6671 208.777C28.8047 204.743 30.3996 201.978 30.3996 201.978C30.5687 201.327 33.7968 190.578 34.8328 200.185C35.8661 209.796 31.8964 221.196 30.3996 223.476Z" fill="#5F9AA8"/>
<path d="M48.3145 174.942C48.3145 174.942 35.6775 175.165 35.6693 166.693C35.6611 158.221 34.0226 152.546 42.0901 152.044C50.1576 151.542 51.728 154.773 52.3715 157.599C53.0149 160.428 51.6026 174.666 48.3145 174.942Z" fill="#FFB27D"/>
<path d="M51.9971 152.89C50.0477 150.346 48.5727 150.9 47.7439 151.663C45.012 147.27 36.3828 153.623 36.3828 153.623C35.5376 159.701 31.4644 163.184 31.4644 163.184C31.4644 163.184 33.7682 164.716 39.0766 163.245C43.2562 162.089 46.288 155.689 47.3894 153.013C48.1419 153.732 49.726 155.393 50.2004 157.021C50.8302 159.178 51.1138 163.621 52.3161 163.468C52.3188 163.468 54.9253 156.713 51.9971 152.89Z" fill="#163560"/>
<path d="M32.2558 366.754C32.2558 366.754 32.6729 369.853 31.596 373.172C31.596 373.172 30.7481 377.324 34.5487 377.4C38.3466 377.477 39.2791 377.092 38.8483 374.545C38.4175 372.001 37.5996 367.597 37.5996 367.597L32.2558 366.754Z" fill="#FFB27D"/>
<path d="M39.2059 379.437C39.2059 379.437 39.2031 379.44 39.195 379.446H31.3347C31.3265 379.44 31.321 379.437 31.321 379.437C30.8903 377.266 31.5937 373.175 31.5937 373.175C35.896 377.6 38.587 373.063 38.587 373.063C39.2877 374.959 39.2059 379.437 39.2059 379.437Z" fill="#C45446"/>
<path d="M95.2868 375.156C95.2868 375.156 88.2826 366.596 86.1341 362.338L80.9266 365.211L92.5658 376.978L95.2895 376.594L95.2868 375.156Z" fill="#FFB27D"/>
<path d="M99.5816 379.423H89.8646C89.0085 378.592 88.1933 376.92 87.1927 374.727C86.6201 373.472 85.3387 372.779 84.0218 372.4V379.423H82.0124L80.1503 371.954C78.9098 369.451 79.8422 367.159 80.7147 365.182C81.7289 365.179 84.6707 365.968 89.8455 372.365C91.5468 374.466 93.4226 375.215 95.2875 375.153C95.312 375.171 95.3393 375.185 95.3638 375.197C98.3084 376.655 99.2708 378.443 99.5816 379.423Z" fill="#C45446"/>
<path d="M99.1081 189C99.1081 189 90.8143 193.991 87.8507 195.432C86.7983 195.943 84.8871 196.899 82.9377 197.879C81.7598 198.472 80.5684 199.074 79.5378 199.596C77.7956 200.476 75.7235 199.995 74.4721 198.419C69.9816 192.773 58.3561 180.54 46.3516 179.008L46.3107 178.987C46.3107 178.987 46.3134 178.993 46.3162 179.002C46.3107 179.002 46.3053 179.002 46.2998 178.999L46.3652 179.137C47.0387 180.945 53.6203 198.639 53.8248 202.372C54.0402 206.307 54.6836 266.704 54.6836 266.704C54.6836 266.704 54.2528 269.48 59.1986 268.324C64.1443 267.168 65.4339 266.009 65.4339 266.009C65.4339 266.009 60.7036 228.75 61.9932 215.791C62.2467 213.247 62.0177 210.389 61.4888 207.44C68.7984 212.205 77.4193 214.327 77.4193 214.327C77.4193 214.327 80.6338 212.816 85.6286 209.485C87.7253 208.085 90.1572 205.852 92.5511 203.49C95.4438 200.635 100.42 193.742 100.42 193.742L99.1081 189Z" fill="#E37970"/>
<path d="M79.515 358.397L74.0375 358.579C74.0375 358.579 61.3896 343.422 54.2927 319.122C54.1264 318.559 53.9519 317.987 53.7692 317.408C49.8868 305.222 41.8356 289.924 37.5933 276.08C36.9172 273.873 36.3119 271.798 35.7666 269.832C35.5921 269.204 35.4231 268.585 35.2622 267.978L39.7717 264.295C39.7717 264.295 53.3139 287.9 57.5072 310.113C61.1524 329.407 75.7388 352.625 79.515 358.397Z" fill="#5F9AA8"/>
<path d="M40.2425 312.179C40.3189 322.98 39.8117 347.818 38.5058 358.097H33.6555C30.9754 358.097 29.6367 358.056 29.6367 358.056C26.3568 340.179 24.0257 325.387 22.3271 312.639C20.9339 302.181 19.6961 293.213 18.7419 285.493C17.7822 277.725 17.1169 271.22 16.877 265.723C16.8415 264.858 16.8116 264.016 16.7979 263.2C16.7816 262.378 16.7788 261.58 16.7843 260.805L43.2525 258.029C42.9199 276.957 40.1989 305.902 40.2425 312.179Z" fill="#80BDCC"/>
<path d="M33.6584 358.101C30.9783 358.101 29.6396 358.06 29.6396 358.06C26.3597 340.183 24.0286 325.39 22.33 312.643C20.9368 302.185 19.699 293.217 18.7448 285.496C17.7851 277.729 17.1198 271.223 16.8799 265.727L26.5915 271.875C26.5915 271.875 20.3915 274.228 22.7581 292.046C25.1246 309.867 30.3648 355.577 33.6584 358.101Z" fill="#5F9AA8"/>
<path d="M34.9069 265.552C34.9069 265.552 33.042 272.803 26.5912 271.876C20.1405 270.951 10.9688 266.785 10.9688 266.785C10.9688 266.785 13.7252 257.409 17.1523 245.093C21.302 230.183 26.4386 210.962 28.8596 198.837C29.5385 195.439 30.0047 192.602 30.1765 190.571L35.6403 179.391C35.6403 179.391 43.5088 198.67 43.9396 203.529C44.3676 208.392 34.9069 265.552 34.9069 265.552Z" fill="#E37970"/>
<path d="M57.9432 208.956C54.8378 209.397 53.649 211.172 53.2646 213.567C53.0574 214.861 52.4385 216.137 51.9123 217.038C48.8205 217.217 41.4564 217.648 35.2674 218.068L34.7576 226.804C39.8396 226.123 46.0859 224.735 53.2755 222.085C53.829 221.983 54.5188 221.616 55.383 220.853C59.838 216.926 62.3654 210.35 62.3736 209.408C62.3818 208.469 61.0486 208.516 57.9432 208.956Z" fill="#FFB27D"/>
<path d="M34.6202 213.715C34.3312 221.582 32.6109 236.856 17.2747 245.031C17.2338 245.052 17.1929 245.075 17.152 245.093C21.3016 230.183 26.4382 210.962 28.8593 198.837C31.6757 203.371 34.7784 209.383 34.6202 213.715Z" fill="#C45446"/>
<path d="M35.6379 179.393C35.6379 179.393 22.5183 180.394 19.3666 187.953C16.2121 195.512 15.2088 220.66 19.2221 228.064C19.2221 228.064 24.7486 229.757 34.5201 227.791C34.6401 227.767 34.76 227.744 34.88 227.718C34.88 227.718 37.999 219.501 35.2017 217.881C35.2017 217.881 26.9597 218.345 27.8185 215.413C28.6828 212.485 35.6379 179.393 35.6379 179.393Z" fill="#E37970"/>
<path d="M108.002 183.066C100.943 182.089 99.1631 189 99.1631 189L100.48 193.745C102.656 194.068 104.559 193.457 106.315 190.758C108.068 188.055 108.553 189.094 109.665 187.084C111.179 184.357 108.812 183.342 108.002 183.066Z" fill="#FFB27D"/>
<path d="M87.85 195.433C86.7976 195.943 84.8864 196.9 82.937 197.88C83.9812 199.876 85.2872 203.5 85.6334 209.489C87.7301 208.089 90.4456 205.756 92.7631 203.309C96.4819 199.38 100.427 193.746 100.427 193.746L99.1102 189C99.1075 189 90.8137 193.992 87.85 195.433Z" fill="#FFB27D"/>
<path d="M462.267 250.473C462.267 250.473 457.248 251.861 454.058 250.825C450.868 249.789 445.377 251.488 444.494 252.741C443.61 253.995 443.935 254.49 445.513 254.922C447.092 255.353 452.681 257.921 456.356 256.436C460.032 254.951 464.822 254.895 464.822 254.895L462.267 250.473Z" fill="#E49963"/>
<path d="M505.643 203.548C505.643 203.548 500.005 246.679 490.669 250.54C486.062 252.448 465.703 256.767 459.68 257.202C459.68 257.202 458.205 255.913 458.565 250.669C458.565 250.669 479.894 242.242 482.926 237.658C487.436 230.836 480.126 209.79 485.786 203.384C491.444 196.978 500.975 194.225 505.643 203.548Z" fill="#4A75CB"/>
<path d="M504.921 369.73V360.328H518.676C519.047 360.328 519.349 360.002 519.349 359.6V358.095C519.349 357.695 519.047 357.367 518.676 357.367H504.921V303.836C504.921 302.334 503.779 301.104 502.383 301.104H499.662C498.266 301.104 497.123 302.334 497.123 303.836V357.367H483.369C482.998 357.367 482.692 357.693 482.692 358.095V359.6C482.692 359.999 482.995 360.328 483.369 360.328H497.123V369.73C487.172 370.54 479.197 374.395 476.961 379.378H525.083C522.847 374.395 514.872 370.54 504.921 369.73Z" fill="#2B478B"/>
<path d="M503.741 294.413C502.096 297.415 500.193 300.229 498.233 302.893C492.172 311.127 485.577 317.915 484.429 324.332C484.2 325.612 483.838 326.988 483.363 328.441C482.883 329.911 482.289 331.457 481.605 333.053C479.034 339.066 475.187 345.801 471.348 351.925C464.712 362.51 458.471 371.342 458.471 371.342L447.025 370.817C447.483 369.582 452.475 354.968 459.155 337.106C461.868 329.855 464.75 322.143 467.533 314.704C467.904 313.71 468.275 312.721 468.64 311.741C469.491 309.463 470.328 307.224 471.146 305.041C477.417 288.271 482.412 274.916 482.412 274.916C482.412 274.916 507.473 264.698 510.077 271.319C512.22 276.78 510.472 282.129 503.741 294.413Z" fill="#163560"/>
<path d="M458.112 369.105C458.112 369.105 457.526 379.27 455.699 379.416C455.457 379.437 446.432 379.437 446.432 379.437L434.913 379.363C434.913 379.363 434.989 376.376 438.357 375.745C441.724 375.114 447.362 372.567 449.401 367.775C451.544 362.734 458.112 369.105 458.112 369.105Z" fill="#163560"/>
<path d="M484.618 340.064C484.618 340.064 492.579 345.569 491.807 347.359C491.704 347.597 487.306 356.077 487.306 356.077L481.632 366.867C481.632 366.867 479.247 365.341 480.375 361.867C481.504 358.396 482.186 351.855 479.296 347.603C476.248 343.13 484.618 340.064 484.618 340.064Z" fill="#163560"/>
<path d="M473.845 270.069C473.845 270.069 442.387 291.159 438.876 305.333C435.364 319.506 480.721 349.743 480.721 349.743C480.721 349.743 485.697 345.018 486.574 341.553C486.574 341.553 466.072 315.116 461.625 309.189C458.893 305.55 502.012 296.588 507.276 287.77C512.544 278.952 510.657 271.531 510.657 271.531L473.845 270.069Z" fill="#1C468A"/>
<path d="M533.214 297.152H468.832C467.545 297.152 466.49 298.285 466.49 299.673V313.532C466.49 314.917 467.542 316.053 468.832 316.053H533.214C534.501 316.053 535.556 314.92 535.556 313.532V299.673C535.556 298.285 534.503 297.152 533.214 297.152Z" fill="#EE9849"/>
<path d="M488.391 196.156C485.302 198.216 483.598 200.831 483.598 200.831C491.134 202.929 503.626 195.414 503.626 195.414C503.626 195.414 498.776 191.904 496.979 184.198C496.889 183.808 496.805 183.412 496.731 183.001C496.497 181.704 496.35 180.298 496.322 178.781L492.86 182.121L487.102 187.673C487.102 187.673 487.232 189.976 487.952 193.938C488.083 194.624 488.228 195.367 488.391 196.156Z" fill="#E49963"/>
<path d="M511.574 234.422C510.494 250.048 512.31 273.805 511.086 277.922C510.028 281.473 497.59 279.372 492.783 278.186C491.003 277.746 488.849 277.121 486.624 276.378C480.416 274.31 473.652 271.355 472.927 269.163C472.899 269.077 472.875 268.992 472.858 268.91C472.79 268.593 472.807 268.294 472.872 267.992C473.115 266.874 474.047 265.665 474.156 262.898C474.279 259.808 474.26 256.169 474.369 252.254C474.374 251.814 474.38 251.333 474.426 250.896L474.429 250.734C474.432 250.649 474.432 250.567 474.434 250.485C474.538 246.121 474.75 241.532 474.996 236.98C475.151 234.122 475.334 231.294 475.541 228.579C476.084 221.58 476.812 215.354 477.777 211.418C479.355 205.004 482.834 200.819 486.003 197.753L488.293 195.637C490.85 196.239 493.871 195.839 496.606 194.446C499.564 192.934 500.586 191.849 501.101 192.259C507.934 197.932 512.85 215.318 511.574 234.422Z" fill="#739AF0"/>
<path d="M486.66 276.412C480.452 274.343 473.688 271.388 472.963 269.196C472.935 269.111 472.911 269.026 472.895 268.944C472.897 268.638 472.903 268.33 472.908 268.025C473.151 266.907 474.083 265.698 474.192 262.931C474.315 259.841 474.296 256.202 474.405 252.288C474.41 251.847 474.416 251.366 474.462 250.929L474.465 250.768C474.468 250.682 474.468 250.6 474.47 250.518L497.92 239.071C497.917 239.068 499.27 259.41 486.66 276.412Z" fill="#4A75CB"/>
<path d="M487.105 187.666C487.105 187.666 487.236 189.97 487.956 193.931C493.578 191.977 496.127 186.513 496.978 184.195C497.22 183.54 497.324 183.135 497.324 183.135C497.324 183.135 497.106 183.086 496.73 183C495.939 182.819 494.45 182.481 492.861 182.117L487.105 187.666Z" fill="#D68D5D"/>
<path d="M484.833 187.608C484.833 187.608 497.183 189.108 497.93 180.815C498.68 172.522 500.777 167.132 492.925 165.823C485.073 164.514 483.251 167.519 482.376 170.222C481.501 172.924 481.637 187.004 484.833 187.608Z" fill="#E49963"/>
<path d="M497.879 181.387C497.879 181.387 497.097 170.38 485.856 169.241C478.156 168.461 482.448 161.327 483.268 160.188C483.268 160.188 489.168 161.06 495.215 162.134C507.907 164.391 499.125 179.673 497.879 181.387Z" fill="#2B478B"/>
<path d="M428.918 230.815L427.836 231.193L437.034 261.662L438.115 261.284L428.918 230.815Z" fill="#4A75CB"/>
<path d="M468.224 258.922L436.997 259.641L437.037 261.651L468.264 260.931L468.224 258.922Z" fill="#4A75CB"/>
<path d="M464.849 257.104C464.849 257.104 460.002 259.079 456.727 258.428C453.45 257.779 448.166 260.118 447.416 261.468C446.667 262.818 447.04 263.273 448.651 263.516C450.265 263.76 456.084 265.647 459.582 263.733C463.08 261.82 467.837 261.198 467.837 261.198L464.849 257.104Z" fill="#E49963"/>
<path d="M503.156 205.318C503.156 205.318 501.97 248.853 493.087 253.801C488.703 256.242 468.912 262.953 462.971 264.098C462.971 264.098 461.374 262.991 461.194 257.739C461.194 257.739 481.53 246.831 484.071 241.916C487.855 234.601 478.433 214.549 483.403 207.51C488.368 200.473 497.559 196.605 503.156 205.318Z" fill="#739AF0"/>
<path d="M639.816 380.765H6.65332C6.31252 380.765 6.03442 380.466 6.03442 380.099C6.03442 379.732 6.31252 379.433 6.65332 379.433H639.816C640.157 379.433 640.435 379.732 640.435 380.099C640.432 380.466 640.154 380.765 639.816 380.765Z" fill="#202F4E"/>
</svg>
