<svg width="97" height="73" viewBox="0 0 97 73" fill="none" xmlns="http://www.w3.org/2000/svg">
<path fill-rule="evenodd" clip-rule="evenodd" d="M48.494 -0.00192261C75.272 -0.00192261 96.988 16.3388 96.988 36.4876C96.988 56.6365 75.272 72.9772 48.494 72.9772C21.716 72.9772 0 56.6365 0 36.4876C0 16.3388 21.716 -0.00192261 48.494 -0.00192261Z" fill="#F7E123"/>
<path fill-rule="evenodd" clip-rule="evenodd" d="M48.4972 1.53918V1.54495H48.4952H48.4914V1.53918C35.4509 1.53952 23.6613 5.50508 15.1438 11.9142C6.74791 18.2317 1.55356 26.923 1.55322 36.488H1.55938V36.4893V36.4915H1.55322C1.55391 46.056 6.7479 54.7465 15.1432 61.0641C23.6611 67.474 35.4517 71.4394 48.4933 71.4396V71.4336H48.4952H48.4991V71.4396C61.5396 71.439 73.3291 67.4736 81.8466 61.0645C90.2427 54.747 95.4372 46.0556 95.4372 36.4907H95.4314V36.4893V36.4872H95.4372C95.4365 26.9228 90.2427 18.2321 81.8473 11.9146C73.3293 5.50508 61.5386 1.53918 48.4972 1.53918Z" fill="#353980"/>
<path fill-rule="evenodd" clip-rule="evenodd" d="M48.4963 11.0324V11.0368H48.4949H48.4922V11.0324C39.4024 11.0328 31.1845 13.9211 25.2473 18.5892C19.395 23.1908 15.7742 29.5212 15.774 36.4877H15.7783V36.4887V36.4903H15.774C15.7745 43.4566 19.395 49.7865 25.2469 54.388C31.1844 59.0564 39.403 61.9449 48.4936 61.945V61.9407H48.4949H48.4977V61.945C57.5875 61.9446 65.8054 59.0564 71.7426 54.3882C77.5948 49.7866 81.2157 43.4563 81.2157 36.4897H81.2116V36.4887V36.4872H81.2157C81.2154 29.5209 77.5948 23.1909 71.743 18.5896C65.8054 13.9211 57.5868 11.0325 48.4963 11.0324Z" fill="#F7E123"/>
<path fill-rule="evenodd" clip-rule="evenodd" d="M49.1025 12.9694H48.4963H48.4945H47.4816C43.5236 13.0679 39.7532 13.7423 36.3033 14.8875C35.5113 15.1504 34.7127 15.4492 33.9104 15.7814C33.1246 16.1067 32.3673 16.4536 31.6415 16.8191C29.7651 17.7639 28.0267 18.8653 26.4565 20.1L26.4545 20.0975V20.1015C25.6785 20.7115 24.9535 21.3443 24.284 21.9966C23.6045 22.6582 22.9722 23.3455 22.3911 24.0547C19.571 27.4971 17.8789 31.5359 17.7255 35.8451V36.4884V36.4893V36.4912V37.1275C17.7917 39.0012 18.1486 40.8258 18.7632 42.572C18.9897 43.2156 19.247 43.8407 19.5327 44.4445C21.0345 47.6193 23.4175 50.4907 26.4559 52.8791L26.4824 52.9054C27.2524 53.509 28.0648 54.0823 28.9153 54.6208C29.7418 55.1443 30.6463 55.6544 31.6247 56.148C36.3226 58.518 41.9025 59.9239 47.9109 60.0096H48.4934H48.4945H48.4976H49.4663C53.4397 59.915 57.2239 59.2408 60.6859 58.0915C61.4779 57.8287 62.2765 57.5298 63.079 57.1976C63.8646 56.8723 64.6218 56.5256 65.348 56.1599C67.2243 55.2152 68.9626 54.1136 70.5327 52.8791L70.5347 52.8816V52.8775C71.3107 52.2675 72.0358 51.6347 72.7052 50.9824C73.3847 50.3209 74.017 49.6336 74.5983 48.9243C77.4152 45.4858 79.1072 41.4513 79.2639 37.1472V36.4907V36.4893V36.488V35.8222C79.1951 33.9583 78.8376 32.1444 78.2261 30.4071C77.9996 29.7634 77.7423 29.1384 77.4566 28.5345C75.9549 25.3597 73.5718 22.4884 70.5335 20.1L70.5031 20.0696L70.5008 20.0677C69.7325 19.4662 68.9216 18.895 68.0739 18.3582C67.2474 17.8348 66.3429 17.3246 65.3645 16.8311C60.6726 14.4641 55.1019 13.0583 49.1025 12.9694Z" fill="#BBBDBF"/>
<path fill-rule="evenodd" clip-rule="evenodd" d="M48.9905 14.2143L48.9909 18.2298C49.8873 18.2172 50.7817 18.1743 51.667 18.1009C50.8583 16.5987 49.9599 15.2852 48.9905 14.2143ZM48.9909 19.1907L48.9915 27.0348C50.9691 27.032 52.9323 26.97 54.8573 26.8502C54.187 23.975 53.2623 21.3107 52.1405 19.0219C51.1005 19.1191 50.0464 19.1757 48.9909 19.1907ZM48.9915 27.998L48.9921 36.0746H56.0524C56.0413 35.7145 56.0265 35.3551 56.0072 34.9962C55.8754 32.5316 55.5531 30.1054 55.068 27.7998C53.0742 27.9274 51.0402 27.9943 48.9915 27.998ZM48.9921 37.0404L48.9927 45.4402C51.1196 45.4441 53.231 45.5158 55.2976 45.6535C55.8575 42.85 56.1009 39.9355 56.0725 37.0404H48.9921ZM48.9927 46.403L48.9932 54.2505C50.0639 54.2664 51.1333 54.3243 52.1879 54.4246C53.5083 52.0301 54.462 49.3796 55.0943 46.6037C53.0937 46.4739 51.0511 46.406 48.9927 46.403ZM48.9932 55.2123L48.9936 58.8901C49.9973 57.8026 50.8834 56.6127 51.6575 55.3411C50.7763 55.2679 49.8855 55.2252 48.9932 55.2123ZM48.0238 58.8895L48.0234 55.2102C47.1288 55.219 46.2355 55.2579 45.3514 55.3268C46.1274 56.6036 47.0162 57.7981 48.0238 58.8895ZM48.0234 54.2478L48.0229 46.406C45.9946 46.423 43.9559 46.503 41.9315 46.6475C42.5627 49.3997 43.5103 52.0278 44.8186 54.4045C45.8758 54.3098 46.9483 54.2575 48.0234 54.2478ZM48.0229 45.4428L48.0222 37.0404H40.9417C40.9134 39.9498 41.1596 42.8787 41.7263 45.6948C43.8176 45.5428 45.9255 45.4594 48.0229 45.4428ZM48.0222 36.0746L48.0217 27.9954C46.0009 27.9794 43.9701 27.9016 41.9539 27.7604C41.4642 30.0775 41.1384 32.5168 41.0059 34.995C40.9867 35.3543 40.9725 35.714 40.9614 36.0746H48.0222ZM48.0217 27.032L48.0211 19.1931C46.9629 19.1832 45.9072 19.1318 44.8663 19.0397C43.7534 21.3132 42.8347 23.9566 42.1666 26.8081C44.113 26.9418 46.0723 27.0159 48.0217 27.032ZM48.0211 18.2317L48.0207 14.2217C47.0501 15.2939 46.1508 16.6091 45.3419 18.1129C46.2281 18.1826 47.1241 18.2226 48.0211 18.2317ZM39.3341 55.3299C40.4901 55.0319 41.6992 54.7952 42.9382 54.6206C43.2155 54.5816 43.4946 54.5457 43.7752 54.5126C42.5002 52.1093 41.5738 49.4731 40.9541 46.7222C39.7312 46.8225 38.5152 46.9471 37.3121 47.0956C35.5408 47.3147 33.7992 47.5859 32.1059 47.9114C32.3082 48.2386 32.5199 48.5625 32.7415 48.8826C34.4039 51.2826 36.6027 53.4748 39.3341 55.3299ZM43.0753 55.5752C42.1777 55.7018 41.3004 55.8603 40.4515 56.0514C42.3572 57.221 44.4976 58.2339 46.8708 59.0531C45.8965 57.9326 45.0361 56.7168 44.2836 55.4255C43.8778 55.4688 43.4747 55.5188 43.0753 55.5752ZM53.2285 54.5374C54.75 54.7241 56.2314 55.001 57.6327 55.3676C60.393 53.5032 62.612 51.2956 64.287 48.8772C64.5261 48.532 64.7542 48.182 64.9713 47.8285C62.1904 47.2965 59.1895 46.9079 56.0727 46.672C55.4514 49.4503 54.5172 52.1128 53.2285 54.5374ZM56.519 56.0828C55.2997 55.803 54.0255 55.5903 52.7227 55.4448C51.9728 56.7294 51.1165 57.9388 50.1467 59.0539C52.5003 58.2418 54.625 57.2393 56.519 56.0828ZM31.5873 47.0298C33.412 46.6697 35.2882 46.373 37.1941 46.1376C38.3699 45.9923 39.5584 45.8702 40.7536 45.7707C40.1894 42.9239 39.9434 39.9715 39.9709 37.0404H28.8845C28.9322 40.4725 29.8356 43.889 31.5873 47.0298ZM56.2717 45.7234C59.5028 45.9726 62.6118 46.384 65.4847 46.9481C67.2077 43.8298 68.096 40.4428 68.1436 37.0404H57.0434C57.0711 39.955 56.8286 42.8913 56.2717 45.7234ZM28.894 36.0746H39.99C40.0011 35.6977 40.0161 35.3215 40.0362 34.946C40.1688 32.4644 40.4934 30.0184 40.981 27.6875C39.7092 27.5855 38.4445 27.4577 37.1941 27.3037C35.2923 27.0696 33.4202 26.7739 31.5988 26.4157C29.9022 29.4762 29.0025 32.7731 28.894 36.0746ZM57.0242 36.0746H68.1347C68.0276 32.8021 67.1431 29.5332 65.4744 26.4955C62.5363 27.07 59.3515 27.4857 56.0419 27.7324C56.5242 30.0501 56.845 32.4808 56.977 34.9471C56.9971 35.3223 57.0129 35.6982 57.0242 36.0746ZM32.1143 25.5332C33.8048 25.8571 35.5435 26.1278 37.3121 26.3456C38.5925 26.5033 39.8878 26.6327 41.1904 26.7356C41.8484 23.8925 42.7514 21.2425 43.847 18.9356C43.235 18.8649 42.6291 18.7801 42.0332 18.6802C41.0669 18.5183 40.1253 18.318 39.219 18.0804C36.4163 20.0604 34.1865 22.3754 32.5262 24.8867C32.3846 25.1009 32.2477 25.3163 32.1143 25.5332ZM55.8343 26.7837C59.0337 26.5508 62.1145 26.1581 64.9641 25.6153C64.8155 25.3714 64.6617 25.1293 64.5026 24.8888C62.8309 22.3609 60.5826 20.0316 57.7525 18.0428C56.2945 18.4311 54.7474 18.7214 53.1578 18.9134C54.2633 21.2385 55.1732 23.9134 55.8343 26.7837ZM40.2984 17.353C40.9166 17.4958 41.5491 17.6215 42.1929 17.7295C42.8848 17.8456 43.5898 17.9412 44.3029 18.0169C45.0671 16.5427 45.9142 15.2306 46.8277 14.1241C44.4047 15.0233 42.2285 16.1123 40.2984 17.353ZM52.7046 18.0005C54.0707 17.8489 55.4058 17.6227 56.6791 17.3229C54.7585 16.094 52.5952 15.0144 50.1884 14.1224C51.0984 15.2251 51.9426 16.5321 52.7046 18.0005ZM49.1025 12.9694H47.4816C44.997 13.0301 41.0581 15.5728 39.0256 16.9621C38.7775 16.8927 38.532 16.8208 38.2901 16.7455C37.0712 16.3658 35.9365 15.9103 34.9201 15.3803L34.9197 15.3801C34.5842 15.5076 34.2475 15.6418 33.9104 15.7814L33.7775 15.8367C34.057 15.9986 34.3961 16.1956 34.4675 16.2329C35.5388 16.7917 36.7283 17.2696 38.0011 17.6661L38.0278 17.6742C35.4101 19.6244 33.3016 21.8682 31.701 24.289C31.4886 24.6105 31.2857 24.9346 31.0911 25.262C30.6752 25.1759 30.2617 25.0876 29.8526 24.9949C27.5169 24.4656 25.2945 23.8274 23.2376 23.0772C23.0051 23.3321 22.7786 23.5904 22.5595 23.8517L22.7307 23.9174L22.7615 23.9288C24.906 24.719 27.2163 25.3862 29.6356 25.9344C29.9525 26.0063 30.2717 26.0756 30.5922 26.1434C28.909 29.273 28.0177 32.6357 27.9123 36.0051L17.7255 36.0147V36.4893V36.9805L27.9034 36.9709C27.95 40.4712 28.8446 43.9533 30.5811 47.1642C30.2642 47.2314 29.9488 47.3008 29.6356 47.372C27.2212 47.9208 24.9157 48.5882 22.7749 49.3786C22.9998 49.6396 23.2314 49.8968 23.4693 50.1505C25.4615 49.434 27.6047 48.8225 29.8526 48.3116C30.259 48.2193 30.6695 48.13 31.0826 48.0443C31.3478 48.4875 31.6292 48.9252 31.9277 49.3562C33.5219 51.6577 35.5881 53.7738 38.122 55.5984C37.1026 55.9109 36.1351 56.2758 35.2381 56.6917C34.8412 56.8756 34.4601 57.0688 34.0973 57.27L34.0983 57.2719C34.4913 57.4321 34.889 57.5862 35.2917 57.7334C35.4099 57.6755 35.5287 57.6191 35.649 57.5632C36.7096 57.0714 37.879 56.6535 39.1236 56.3106C39.1477 56.304 42.8412 58.7734 46.7927 59.9781C47.1637 59.9936 47.5364 60.0042 47.9111 60.0096H49.4663C52.0662 59.9488 55.6567 57.7386 57.7965 56.3402C59.1721 56.7238 60.4588 57.1993 61.6151 57.7672C62.0095 57.6231 62.4056 57.4707 62.8027 57.31L62.8075 57.3015C61.6177 56.6438 60.272 56.0898 58.8206 55.64C61.384 53.8045 63.471 51.6718 65.0786 49.3508C65.3945 48.8946 65.6921 48.431 65.9711 47.9608C68.7719 48.5436 71.3261 49.2762 73.5212 50.1503C73.7703 49.8843 74.0122 49.6149 74.2466 49.3419C72.0422 48.4995 69.0755 47.6373 66.4669 47.0821C68.1756 43.894 69.056 40.4414 69.1026 36.9709H79.2639V36.4893V36.0051H69.0942C68.9902 32.6643 68.1131 29.3302 66.4572 26.2236C69.3563 25.6091 71.9919 24.8353 74.2394 23.9118L74.4241 23.8452C74.2048 23.5838 73.9787 23.326 73.7463 23.0718C71.4996 23.9835 68.8636 24.7444 65.9643 25.3449C65.7554 24.99 65.5355 24.6389 65.3055 24.2912C63.6927 21.8519 61.5647 19.5927 58.919 17.6321C60.3332 17.1875 61.6448 16.6433 62.8075 15.9986L63.1583 15.8164C62.7696 15.6542 62.3764 15.4985 61.9782 15.349C60.7657 15.9821 59.3977 16.5083 57.9256 16.9271C55.6594 15.3859 53.0468 14.0538 50.0871 12.9957C49.7601 12.9829 49.4322 12.9742 49.1025 12.9694Z" fill="#4782A5"/>
<path fill-rule="evenodd" clip-rule="evenodd" d="M64.6784 40.4532C64.6651 40.5328 64.6505 40.6118 64.6359 40.6912L64.6353 40.691C64.5557 41.1221 64.4659 41.5196 64.3664 41.8822H64.3627C63.8112 43.8889 62.8297 45.7224 61.4198 47.3796L61.4207 47.3804L61.419 47.3825L61.4077 47.3939C61.0323 47.8339 60.6369 48.2476 60.2223 48.6334C59.8145 49.0128 59.3781 49.3714 58.9141 49.7076C56.5754 51.4008 53.7542 52.3046 50.4257 52.3046H50.4216V52.3007C48.9116 52.3004 47.4917 52.0827 46.1737 51.6863C45.9305 51.6131 45.7184 51.5443 45.5387 51.481C44.4577 51.0991 43.4524 50.5967 42.5299 49.9973L42.5223 49.9934L42.5206 49.9923L42.521 49.9917C42.3829 49.9019 42.2148 49.7856 42.0199 49.6467C41.8238 49.5069 41.66 49.3856 41.5286 49.2828C41.3562 49.1482 41.1878 49.01 41.0221 48.8675V51.304V52.2698H40.0484H38.1044L37.1307 52.27V51.304V42.9073V41.9415H38.1044H40.0482H40.0484H41.0221V42.6813C42.1757 44.8829 43.9099 46.4597 45.8861 47.3911C47.7165 48.254 49.7536 48.5681 51.7297 48.3172C53.7014 48.0668 55.6155 47.2533 57.2042 45.8609C58.7518 44.5046 59.9974 42.5909 60.6977 40.102C59.0196 40.1882 57.2918 40.4717 55.5316 40.7609C51.5371 41.4175 47.3784 42.101 42.8209 40.7211L42.1266 40.511L42.1325 39.793L42.1444 38.341L42.1457 38.1669L42.1521 37.3773L42.1667 35.5977L42.1776 34.2732L43.4409 34.6885C47.3421 35.9709 51.2541 35.3354 55.1657 34.7001C56.7559 34.4418 58.3468 34.1839 59.9623 34.045C58.746 31.4584 56.9933 29.7327 55.0243 28.7497C53.7413 28.1096 52.363 27.7795 50.9797 27.7283C49.5881 27.6769 48.1864 27.9072 46.8672 28.3864C44.4327 29.2707 42.2929 31.0022 41.0221 33.3725V34.108H40.0484H40.0482H38.1044H37.1307V33.1422V24.7455V23.7799L38.1044 23.7797H40.0484L41.0221 23.7799V24.7455V27.0211C41.4616 26.646 41.9418 26.2923 42.4709 25.958L42.4748 25.9541L42.4785 25.9518L42.4793 25.9529C42.8032 25.7488 43.1346 25.5581 43.4727 25.3827C43.8376 25.1934 44.1846 25.0302 44.513 24.8936H44.5169C46.3324 24.1386 48.3377 23.7606 50.5314 23.7606H50.5342V23.7644C52.7996 23.7648 54.8303 24.263 56.6323 25.1492C56.9164 25.2888 57.2044 25.4443 57.4944 25.6138C58.9355 26.4556 60.2128 27.5502 61.3316 28.8337C62.1602 29.7843 62.8468 30.7401 63.3884 31.7401C63.8301 32.5558 64.1765 33.4003 64.4244 34.2931C64.5132 34.3066 64.5931 34.3192 64.663 34.3315C65.4433 34.4677 66.2924 34.6829 67.0992 34.9303L67.7878 35.1416L67.7876 35.8509V37.3296V37.6151V38.3159V38.712V40.0661V41.4192L66.4982 40.9753L66.4651 40.9639C66.2965 40.906 66.1321 40.8517 65.973 40.8015C65.8048 40.7483 65.6525 40.7022 65.5173 40.6635C65.2127 40.5764 64.9333 40.5071 64.6784 40.4532Z" fill="#1A2128"/>
<path fill-rule="evenodd" clip-rule="evenodd" d="M24.3412 37.6071C25.2877 37.8435 25.8345 37.3098 25.9063 36.6054C25.9281 36.5198 25.9398 36.4338 25.9402 36.3504C25.9406 36.2631 25.9299 36.1622 25.9097 36.0512C25.7977 35.3295 25.2329 34.8916 24.3412 35.0498V37.6071ZM24.7903 40.2546L24.7901 40.9757H25.4261L25.4265 41.9415L25.4271 43.0421L25.4277 44.0079H24.4573H23.6133H22.7901H22.6396H21.8164H19.8727H18.9034L18.9029 43.0421L18.9023 41.9415L18.9019 40.9757H19.5741L19.5603 35.0429H18.8696L18.8842 34.0657L18.9029 32.8198L18.9173 31.8654H19.8727H21.8164H22.6396H22.7901H23.163H23.6133V31.8702C24.7104 31.8932 25.808 32.0151 26.719 32.4564C27.9042 33.0305 28.7079 34.0535 28.7239 35.8733C28.7379 37.4848 28.2818 38.6058 27.3856 39.3405C26.7225 39.8841 25.8553 40.1719 24.7903 40.2546Z" fill="#F7E123"/>
<path fill-rule="evenodd" clip-rule="evenodd" d="M35.7504 36.3058H34.4196H33.4583L33.4498 35.3476L33.4478 35.1242L33.2852 35.1264V40.9195H33.9904V41.8853V43.0419V44.0077H33.0167H32.1086H31.2854H31.1349H30.3117H30.1575H29.1838V44.0039H28.4391H27.4654V43.0419V41.8853V40.9195H28.1655V35.0988H27.4654V34.1329V32.831V31.8691H28.4391H29.1838V31.8652H30.1575H31.1349H32.1086V31.8691H35.7504H36.7241V32.831V35.34V36.3058H35.7504Z" fill="#F7E123"/>
<path fill-rule="evenodd" clip-rule="evenodd" d="M62.8856 38.5974C62.8724 38.677 62.8578 38.756 62.8432 38.8354L62.8426 38.8351C62.7629 39.2663 62.6732 39.6638 62.5737 40.0264H62.57C62.0185 42.0331 61.037 43.8666 59.6271 45.5238L59.628 45.5245L59.6263 45.5266L59.615 45.538C59.2395 45.9781 58.8442 46.3918 58.4296 46.7775C58.0218 47.1569 57.5854 47.5156 57.1213 47.8517C54.7827 49.545 51.9615 50.4488 48.633 50.4488H48.6289V50.4449C47.1188 50.4445 45.699 50.2268 44.381 49.8305C44.1377 49.7573 43.9257 49.6885 43.7459 49.6252C42.6649 49.2433 41.6597 48.7408 40.7372 48.1415L40.7296 48.1376L40.7279 48.1364L40.7282 48.1359C40.5902 48.046 40.4221 47.9298 40.2272 47.7909C40.0311 47.651 39.8673 47.5297 39.7358 47.427C39.5635 47.2923 39.395 47.1542 39.2293 47.0117V49.4482V50.414H38.2556H36.3117L35.338 50.4142V49.4482V41.0515V40.0857H36.3117H38.2554H38.2556H39.2293V40.8255C40.383 43.0271 42.1171 44.6039 44.0934 45.5353C45.9237 46.3982 47.9609 46.7123 49.9369 46.4613C51.9087 46.211 53.8228 45.3974 55.4115 44.0051C56.9591 42.6488 58.2047 40.7351 58.9049 38.2462C57.2269 38.3324 55.4991 38.6159 53.7389 38.9051C49.7443 39.5616 45.5857 40.2452 41.0281 38.8653L40.3339 38.6551L40.3397 37.9372L40.3516 36.4852L40.353 36.3111L40.3594 35.5215L40.374 33.7419L40.3849 32.4174L41.6482 32.8327C45.5494 34.1151 49.4614 33.4796 53.3729 32.8443C54.9632 32.586 56.554 32.3281 58.1696 32.1892C56.9532 29.6026 55.2006 27.8769 53.2316 26.8939C51.9486 26.2538 50.5702 25.9237 49.187 25.8725C47.7954 25.8211 46.3936 26.0514 45.0744 26.5306C42.64 27.4149 40.5002 29.1464 39.2293 31.5167V32.2522H38.2556H38.2554H36.3117H35.338V31.2864V22.8897V21.9241L36.3117 21.9239H38.2556L39.2293 21.9241V22.8897V25.1653C39.6688 24.7902 40.1491 24.4365 40.6782 24.1022L40.6821 24.0983L40.6858 24.096L40.6866 24.0971C41.0104 23.893 41.3419 23.7023 41.6799 23.5269C42.0449 23.3376 42.3919 23.1744 42.7202 23.0378H42.7241C44.5397 22.2828 46.545 21.9048 48.7387 21.9048H48.7414V21.9086C51.0068 21.909 53.0376 22.4072 54.8395 23.2934C55.1237 23.433 55.4117 23.5885 55.7016 23.758C57.1427 24.5997 58.42 25.6944 59.5388 26.9779C60.3674 27.9285 61.0541 28.8842 61.5957 29.8843C62.0373 30.7 62.3838 31.5445 62.6317 32.4372C62.7205 32.4508 62.8003 32.4633 62.8702 32.4757C63.6506 32.6119 64.4996 32.8271 65.3065 33.0745L65.9951 33.2858L65.9949 33.9951V35.4738V35.7592V36.4601V36.8562V38.2103V39.5634L64.7055 39.1195L64.6724 39.1081C64.5037 39.0501 64.3394 38.9959 64.1803 38.9456C64.012 38.8925 63.8597 38.8464 63.7246 38.8077C63.42 38.7206 63.1405 38.6513 62.8856 38.5974Z" fill="#F6E125"/>
<path fill-rule="evenodd" clip-rule="evenodd" d="M77.1487 31.8183L78.1183 31.8237V32.7803V34.1243V35.0901H77.4248L77.4939 39.6342V39.6381L77.4942 39.6804V39.6955C77.4929 39.8361 77.4805 39.9732 77.4583 40.1027C77.4388 40.2162 77.4066 40.3478 77.3642 40.494C76.8157 42.3748 75.4769 43.7283 73.4761 44.1073L69.5289 44.1181L68.5608 44.1208L68.5591 43.1561L68.5557 41.159L68.5542 40.1681L69.5523 40.1971L70.7571 40.2323L71.6576 40.2587L71.6897 40.9296L72.3431 40.935L72.3384 40.3246L72.0808 40.3041L72.0048 40.2929C70.7696 40.0984 69.9433 39.614 69.3797 38.9444C68.8288 38.2898 68.5684 37.4985 68.4352 36.6479L68.4239 36.5749V36.5008L68.4272 35.0901H67.8005V34.1243V32.7803V31.8085L68.7818 31.8183L71.2291 31.8433C71.4465 31.8456 71.664 31.8462 71.8817 31.8467L71.8369 35.004L71.3902 34.9957L71.3828 36.6321C71.3799 37.3389 72.2219 37.9176 72.7281 37.923L72.7111 35.0204L71.9571 35.0063L72.0019 31.8473C73.7158 31.8498 75.4345 31.8091 77.1487 31.8183Z" fill="#F7E123"/>
<path fill-rule="evenodd" clip-rule="evenodd" d="M30.0063 43.0419H28.4385V41.8852H29.1386V34.1329H28.4385V32.831H30.0063V43.0419ZM30.1569 43.0419H31.1343V32.831H30.1569V43.0419ZM35.7498 35.34H34.4189L34.4084 34.1503L32.3109 34.1761V41.8852H33.0161V43.0419H31.2848V32.831H35.7498V35.34Z" fill="#1A2128"/>
<path fill-rule="evenodd" clip-rule="evenodd" d="M62.0537 37.5023C61.7795 40.2796 60.7201 42.7511 58.8767 44.9131C56.3585 47.8654 52.9665 49.4828 48.6347 49.4828C45.8098 49.4828 43.3307 48.6721 41.2713 47.3338C40.1221 46.5869 39.1175 45.6836 38.2573 44.6261V49.448H36.3134V41.0513H38.2571H38.2573V41.0517C43.0172 50.5791 57.6546 49.7617 60.1411 37.2589C54.2438 37.1787 48.1396 40.0121 41.3113 37.9444L41.3231 36.4925C49.8101 38.1857 54.7869 35.9379 59.9244 35.7768V34.703C54.9955 34.8438 49.7809 36.9446 41.3309 35.5288L41.3455 33.7492C47.5299 35.7822 53.5077 33.2921 59.5885 33.0636C55.3951 21.7071 42.3342 23.2506 38.2573 31.2858V31.2862H38.2571H36.3134V22.8894H38.2573V27.6167C39.0443 26.5607 39.9886 25.6793 41.201 24.913C43.3549 23.5514 45.8682 22.8703 48.7404 22.8703C52.955 22.8703 56.2905 24.7214 58.8064 27.6078C60.369 29.4003 61.3904 31.2023 61.848 33.308C62.8071 33.3997 63.9578 33.6684 65.0229 33.9949V35.4735C64.0262 35.1106 63.0579 34.8958 62.0951 34.7866V35.8483C63.0422 35.9454 64.0108 36.1372 65.0229 36.4598V38.21C63.7512 37.7708 62.751 37.5467 62.0537 37.5023Z" fill="#1A2128"/>
<path fill-rule="evenodd" clip-rule="evenodd" d="M75.5886 32.7716L77.1478 32.7801V34.1241H76.4436L76.5271 39.6454C76.5425 40.1859 76.1528 41.0982 75.5886 41.856V32.7716ZM74.453 32.7654L75.4381 32.7708V42.0489C75.1397 42.4153 74.801 42.7306 74.453 42.9276V32.7654ZM73.38 38.0551L73.3531 34.1069L72.5767 34.0992V32.7552L74.3024 32.7646V43.0053C74.0985 43.0997 73.8932 43.1507 73.6907 43.1445L69.5321 43.1559L69.5288 41.1588L70.7337 41.194L70.7668 41.8838L73.3237 41.9048L73.3044 39.4329L72.1601 39.342C70.2096 39.0348 69.6139 37.8857 69.397 36.5006L69.4024 34.1241H68.7775V32.7801L71.2248 32.805V34.149H70.7829L70.7724 36.6369C70.8756 37.3029 71.3251 37.7751 72.1208 38.0534L73.38 38.0551Z" fill="#1A2128"/>
<path fill-rule="evenodd" clip-rule="evenodd" d="M22.6402 43.0419H19.8733L19.8727 41.9413H20.5467L20.5286 34.0769H19.8546L19.8733 32.831H22.6402V43.0419ZM23.841 38.0831C25.4637 38.2932 26.5317 37.4497 26.536 36.1537C26.541 34.6384 25.44 34.0525 23.841 34.1858V38.0831ZM23.8213 39.3131L23.8207 41.9413H24.4573L24.4579 43.0419H22.7907V32.831H23.1637C25.4125 32.831 27.7307 33.1288 27.7547 35.8806C27.7773 38.473 26.4075 39.3877 23.8213 39.3131Z" fill="#1A2128"/>
<path fill-rule="evenodd" clip-rule="evenodd" d="M60.6984 62.8995L61.5054 66.665L62.6184 66.4303L62.7829 67.1976L59.8057 67.8251L59.6414 67.0581L60.7512 66.824L59.9442 63.0585L60.6984 62.8995ZM64.9593 61.7707L66.1685 66.2468L63.4219 66.9768L63.2172 66.2192L65.2189 65.6872L64.9508 64.6952L63.091 65.1893L62.8875 64.4359L64.7473 63.9416L64.4182 62.7233L62.3494 63.2731L62.1455 62.5186L64.9593 61.7707ZM67.1642 60.8854L68.5551 64.4794L69.6174 64.0749L69.9007 64.8072L67.0592 65.8891L66.7759 65.1568L67.8351 64.7535L66.4443 61.1595L67.1642 60.8854ZM71.5034 58.9214L73.4779 63.1211L72.8105 63.4298L71.4949 60.6312L71.4068 64.0792L70.7048 64.4037L68.7305 60.2039L69.3977 59.8953L70.6853 62.6341L70.7986 59.2474L71.5034 58.9214ZM73.6614 59.6498L72.8752 59.814C72.6886 59.3152 72.6432 58.893 72.7398 58.5453C72.8368 58.1984 73.052 57.9169 73.3852 57.7023C73.8037 57.4327 74.2478 57.3743 74.7173 57.5264C75.2589 57.7021 75.7348 58.1043 76.1458 58.7313C76.5796 59.3946 76.7688 60.0102 76.712 60.5795C76.6627 61.0728 76.4181 61.4618 75.976 61.7467C75.6164 61.9783 75.2353 62.0502 74.8336 61.9631C74.5472 61.9003 74.2523 61.7251 73.9485 61.4357L74.4685 60.8371C74.6475 61.0214 74.8343 61.1302 75.0297 61.1636C75.2257 61.197 75.4064 61.1603 75.5716 61.054C75.8087 60.9013 75.9353 60.6743 75.9504 60.3726C75.9661 60.0718 75.8193 59.6851 75.51 59.2128C75.1898 58.7232 74.8887 58.4218 74.6074 58.3096C74.3259 58.1964 74.0686 58.2154 73.8352 58.3658C73.6635 58.4763 73.5591 58.6376 73.5207 58.8487C73.4824 59.0612 73.5289 59.3286 73.6614 59.6498ZM79.3452 58.4692L78.5661 57.406L78.2206 57.6552C77.9882 57.8227 77.8421 57.9519 77.7823 58.0446C77.7231 58.1364 77.6974 58.2443 77.7066 58.367C77.7149 58.4904 77.7638 58.6125 77.8541 58.7355C77.9448 58.8595 78.0495 58.9455 78.1662 58.9909C78.2842 59.0363 78.3937 59.0442 78.4963 59.0156C78.5983 58.9861 78.7793 58.8771 79.0407 58.6888L79.3452 58.4692ZM77.6878 54.9051L80.4339 58.654L79.4277 59.379C79.053 59.6492 78.795 59.8072 78.6534 59.8545C78.4276 59.9293 78.1853 59.9146 77.9277 59.8122C77.669 59.7091 77.4309 59.5086 77.2119 59.2101C77.0131 58.9387 76.8992 58.6743 76.8677 58.4168C76.8362 58.1593 76.8718 57.9378 76.9724 57.7519C77.072 57.5669 77.3111 57.3371 77.6895 57.0643L78.0998 56.7688L77.0637 55.3548L77.6878 54.9051ZM80.3422 52.4788L83.4681 55.9225L81.355 57.8097L80.8264 57.2268L82.3661 55.8514L81.6732 55.0881L80.2423 56.366L79.7161 55.7863L81.147 54.5084L80.2961 53.5712L78.7044 54.9926L78.1775 54.412L80.3422 52.4788ZM83.9266 51.4553L82.9426 50.6929L82.5005 51.254C82.3069 51.4997 82.1964 51.667 82.1669 51.7564C82.1375 51.8462 82.143 51.9448 82.1817 52.0516C82.221 52.1574 82.2983 52.2556 82.416 52.3465C82.5368 52.4402 82.6552 52.4912 82.7729 52.5012C82.8909 52.5109 82.998 52.4856 83.0925 52.4246C83.1883 52.3631 83.3381 52.2026 83.5414 51.9442L83.9266 51.4553ZM85.3907 52.5899L84.5394 51.9303L84.2253 52.3291C84.0371 52.5681 83.9253 52.7192 83.8886 52.7829C83.824 52.8984 83.8048 53.0122 83.8298 53.1259C83.8551 53.2389 83.9294 53.3429 84.0518 53.4379C84.1607 53.5223 84.2674 53.5677 84.3725 53.5725C84.4775 53.5774 84.5644 53.553 84.6345 53.4991C84.7037 53.4446 84.8645 53.2583 85.1156 52.9393L85.3907 52.5899ZM86.4784 52.462L85.5341 53.6608C85.2768 53.9874 85.0657 54.1945 84.9 54.2801C84.7358 54.366 84.5408 54.3961 84.316 54.3695C84.0929 54.343 83.8835 54.2548 83.6916 54.1058C83.514 53.9685 83.3847 53.8051 83.3029 53.616C83.2215 53.4267 83.1948 53.2432 83.2238 53.0659C83.0206 53.1945 82.8027 53.2488 82.5693 53.2295C82.3363 53.2119 82.1091 53.1165 81.8877 52.9449C81.6205 52.7377 81.4443 52.4972 81.3601 52.2268C81.2756 51.9558 81.2808 51.7162 81.3742 51.508C81.4402 51.3631 81.6462 51.0697 81.9938 50.6286L82.7968 49.609L86.4784 52.462ZM85.0314 46.4518L88.8584 49.1097L88.4358 49.7081L85.8858 47.9369L87.5476 50.9666L87.1032 51.5959L83.2765 48.938L83.6988 48.3398L86.1944 50.073L84.5853 47.0838L85.0314 46.4518ZM86.4678 42.8687L90.7994 44.6044L90.5107 45.3137L88.8064 44.6307L88.2377 46.0263L89.942 46.7093L89.6522 47.4215L85.3202 45.6856L85.6104 44.9733L87.5045 45.7323L88.0728 44.3369L86.179 43.5778L86.4678 42.8687ZM88.0335 40.8281L91.5932 40.0912L91.4276 40.9353L88.8769 41.3413L91.1108 42.5515L90.9582 43.3311L87.7194 41.4018C87.3249 41.1654 87.0553 40.9573 86.9095 40.7785C86.7648 40.6012 86.7128 40.4097 86.7525 40.2075C86.7904 40.0126 86.8438 39.8426 86.9112 39.6972L87.5965 39.8295C87.5637 39.9518 87.5408 40.0452 87.5281 40.1099C87.4929 40.2909 87.5059 40.4265 87.5685 40.5144C87.6321 40.6035 87.7868 40.7082 88.0335 40.8281ZM93.085 35.2423L93.1534 35.5909C92.8582 35.6278 92.6163 35.5888 92.4312 35.4739C92.2443 35.3584 92.1311 35.1921 92.0883 34.9749C92.0459 34.7568 92.088 34.5608 92.2177 34.3842C92.346 34.2089 92.555 34.0816 92.8424 34.0053L92.9105 34.3528C92.6159 34.4372 92.4944 34.6153 92.5475 34.8865C92.6005 35.1567 92.7801 35.2759 93.085 35.2423ZM86.9003 34.4092L91.4861 33.5251L91.6264 34.2419L88.5707 34.831L91.922 35.7501L92.0698 36.5042L87.484 37.3883L87.3434 36.6715L90.3341 36.0949L87.0484 35.1665L86.9003 34.4092ZM86.1181 30.6545L90.704 29.7704L90.8446 30.4872L87.7885 31.0764L91.1402 31.9954L91.288 32.7495L86.7018 33.6336L86.5612 32.9168L89.5523 32.3402L86.2666 31.4119L86.1181 30.6545ZM85.0328 27.5944L89.2669 25.6362L89.593 26.3294L87.7909 27.1629C87.8822 27.3087 87.9859 27.3916 88.0985 27.4111C88.2121 27.431 88.456 27.4136 88.8286 27.359C89.2019 27.3053 89.4886 27.2966 89.6864 27.3325C89.8845 27.3684 90.0292 27.4383 90.1172 27.5417C90.2055 27.6449 90.3238 27.8376 90.473 28.1198L89.8383 28.4134L89.7921 28.3157C89.7001 28.1192 89.5909 28.0076 89.4664 27.9796C89.3429 27.9522 89.1318 27.9628 88.8362 28.0103C88.5395 28.0582 88.3349 28.0754 88.2244 28.0623C88.1135 28.0505 87.9876 28.0051 87.848 27.9282C87.8559 28.1102 87.8121 28.2829 87.7139 28.4447C87.6178 28.6072 87.4337 28.8339 87.162 29.1239L86.2249 30.1301L85.841 29.3134L86.7398 28.3918C86.9707 28.1577 87.1223 27.9769 87.1983 27.85C87.2732 27.7237 87.277 27.5838 87.2103 27.4314L85.3589 28.2877L85.0328 27.5944ZM85.7749 25.4432L85.9539 26.2201C85.4543 26.4136 85.0297 26.466 84.6773 26.3764C84.3263 26.2863 84.0385 26.0777 83.8165 25.7511C83.5373 25.3406 83.4709 24.9012 83.6156 24.4332C83.7836 23.8927 84.1805 23.4136 84.8056 22.9955C85.4667 22.5533 86.0836 22.3551 86.6584 22.4015C87.1565 22.4417 87.5531 22.6773 87.848 23.1112C88.0879 23.4637 88.1669 23.8401 88.0862 24.2404C88.028 24.5253 87.8562 24.821 87.5699 25.1272L86.9574 24.6221C87.1401 24.4413 87.2465 24.2541 87.277 24.0596C87.3071 23.8647 87.2671 23.6862 87.1569 23.5243C86.9988 23.2918 86.7679 23.1701 86.4633 23.1604C86.1599 23.15 85.7725 23.3024 85.3021 23.6172C84.8138 23.9437 84.5155 24.2475 84.4074 24.5284C84.2982 24.8096 84.3215 25.0644 84.4775 25.2933C84.5918 25.4615 84.756 25.5624 84.9698 25.5965C85.1844 25.631 85.4533 25.5802 85.7749 25.4432ZM80.6892 21.6329L84.2154 18.5927L86.0808 20.7212L85.4841 21.2358L84.1244 19.6845L83.3429 20.3584L84.6061 21.7998L84.0125 22.3115L82.7496 20.8701L81.7896 21.6976L83.1948 23.301L82.6004 23.8135L80.6892 21.6329ZM79.8006 16.844L80.8962 15.5941L81.4782 16.0959L80.6649 17.0241C80.4948 17.218 80.3768 17.3692 80.3115 17.4786C80.244 17.5879 80.2218 17.7088 80.242 17.8406C80.2629 17.9729 80.3559 18.1102 80.5209 18.2524C80.7679 18.4656 81.0207 18.5721 81.2797 18.5723L82.6011 17.0644L83.1835 17.5663L80.1185 21.0635L79.5365 20.5616L80.7703 19.1537C80.4319 19.0809 80.1472 18.9437 79.9163 18.7447C79.5964 18.4687 79.4253 18.1641 79.4037 17.8313C79.3822 17.4994 79.5146 17.1705 79.8006 16.844ZM74.8319 16.8477L77.6437 13.1469L78.2315 13.5864L76.3582 16.0525L79.4687 14.511L80.0873 14.9735L77.2755 18.6742L76.6877 18.2348L78.521 15.8212L75.4532 17.3121L74.8319 16.8477ZM70.9733 14.5421L73.3794 10.57L74.3707 11.1608L73.3248 14.2256L75.5566 11.8676L76.5505 12.4601L74.1442 16.432L73.5299 16.0658L75.4238 12.9391L72.8771 15.6768L72.2378 15.2956L73.4847 11.7832L71.5904 14.9099L70.9733 14.5421ZM68.733 11.06C68.506 11.5431 68.4285 11.9478 68.4991 12.2744C68.571 12.6018 68.7426 12.8288 69.0168 12.9557C69.2919 13.083 69.5761 13.0679 69.8701 12.9122C70.164 12.7566 70.4267 12.4305 70.6604 11.9337C70.8892 11.4465 70.9706 11.0463 70.904 10.7309C70.838 10.417 70.662 10.1939 70.377 10.0621C70.0921 9.9304 69.8043 9.94007 69.5155 10.0923C69.2253 10.2451 68.9646 10.5672 68.733 11.06ZM67.9979 10.7546C68.2333 10.254 68.5009 9.87651 68.8027 9.62232C69.1038 9.36734 69.4125 9.21608 69.7276 9.16898C70.0427 9.12163 70.3718 9.17766 70.7147 9.33626C71.2117 9.56612 71.5276 9.94065 71.6641 10.4622C71.7996 10.9831 71.7044 11.5916 71.3776 12.287C71.0475 12.9889 70.6234 13.4618 70.1065 13.7038C69.6512 13.9194 69.1751 13.9111 68.6762 13.6802C68.1733 13.4477 67.8585 13.0913 67.7299 12.6115C67.5843 12.0633 67.6738 11.444 67.9979 10.7546ZM63.5124 11.6264L65.0336 7.24488L65.7626 7.49388L65.1642 9.21785L66.5991 9.70787L67.1975 7.98391L67.9297 8.23406L66.4086 12.6156L65.6764 12.3654L66.3414 10.4494L64.9068 9.95938L64.2417 11.8753L63.5124 11.6264ZM60.7101 8.48825C60.5709 9.00302 60.5656 9.41506 60.6924 9.7245C60.8203 10.0345 61.0293 10.2284 61.3214 10.3061C61.6147 10.3841 61.8918 10.3204 62.1543 10.1164C62.4164 9.91245 62.618 9.54619 62.7611 9.01656C62.9013 8.49752 62.9113 8.08918 62.7905 7.79019C62.6703 7.49232 62.4579 7.30301 62.1543 7.22248C61.8507 7.14174 61.5691 7.20083 61.3113 7.40038C61.0522 7.60068 60.8519 7.96307 60.7101 8.48825ZM59.9327 8.31402C60.0768 7.78052 60.2743 7.36251 60.527 7.06022C60.7788 6.75733 61.0564 6.5553 61.3584 6.45447C61.6604 6.35381 61.9944 6.35208 62.3597 6.44924C62.8894 6.59005 63.2663 6.90452 63.492 7.39478C63.7167 7.88443 63.7294 8.49986 63.5292 9.24103C63.327 9.98911 62.9923 10.5278 62.5257 10.8553C62.1148 11.146 61.6445 11.2198 61.1126 11.0784C60.5769 10.936 60.2044 10.6393 59.9938 10.1888C59.7543 9.67407 59.7342 9.0488 59.9327 8.31402ZM56.3002 9.95803L57.1915 5.40909L57.9487 5.55512L57.5691 7.49096C57.7419 7.50352 57.8706 7.46877 57.9524 7.39013C58.0357 7.31055 58.1647 7.10465 58.3393 6.77355C58.515 6.44229 58.6762 6.2074 58.8219 6.06948C58.9676 5.93176 59.1095 5.85683 59.2457 5.84678C59.3818 5.83674 59.6085 5.85527 59.9263 5.90125L59.7927 6.5833L59.686 6.56263C59.4714 6.52129 59.3163 6.54311 59.2201 6.62677C59.1253 6.70965 59.01 6.88504 58.8749 7.15023C58.7395 7.4166 58.6334 7.59084 58.5576 7.67178C58.4829 7.75388 58.3719 7.82823 58.227 7.89485C58.38 7.99589 58.4951 8.13245 58.5697 8.30611C58.6455 8.47899 58.7224 8.75986 58.7991 9.14831L59.069 10.4917L58.1771 10.3198L57.9539 9.05674C57.8986 8.73396 57.84 8.50604 57.7814 8.37063C57.7224 8.236 57.6106 8.15081 57.447 8.11487L57.0571 10.1039L56.3002 9.95803ZM53.7879 7.81354L53.8431 7.03087L55.0412 7.11412C55.0303 6.72509 54.9493 6.41989 54.7992 6.1995C54.649 5.97832 54.4468 5.85934 54.1953 5.84196C53.784 5.81335 53.4924 6.05058 53.3207 6.55452L52.5758 6.29415C52.6932 5.86205 52.8959 5.53964 53.1849 5.32509C53.4737 5.1106 53.8204 5.01762 54.2251 5.04578C54.7635 5.08312 55.1779 5.32916 55.4685 5.7863C55.7588 6.24236 55.878 6.84234 55.8258 7.58388C55.7752 8.30071 55.5775 8.86337 55.2325 9.27096C54.8874 9.67967 54.4535 9.86494 53.9296 9.82862C53.0591 9.76815 52.5569 9.2358 52.426 8.23175L53.2194 7.99242C53.2348 8.31269 53.3133 8.56244 53.4554 8.74207C53.5976 8.92171 53.7826 9.02023 54.0116 9.03608C54.5181 9.07124 54.8428 8.69127 54.9859 7.89662L53.7879 7.81354ZM47.1443 3.57458L47.5009 3.5437C47.5071 3.83896 47.4426 4.07313 47.3081 4.24384C47.1727 4.4159 46.9941 4.51059 46.7719 4.52959C46.549 4.54927 46.3567 4.48683 46.1931 4.34056C46.0308 4.19564 45.925 3.97607 45.8786 3.68454L46.2341 3.65366C46.2878 3.95333 46.4539 4.09179 46.7312 4.0677C47.0078 4.0436 47.146 3.87901 47.1443 3.57458ZM45.6623 9.58872L45.2551 4.97248L45.9887 4.90868L46.26 7.98489L47.5318 4.77462L48.3034 4.70776L48.7106 9.32407L47.977 9.38781L47.7113 6.37719L46.4372 9.52149L45.6623 9.58872ZM44.2 9.64628L43.7928 5.02983L44.5611 4.96331L44.9682 9.57962L44.2 9.64628ZM40.9949 7.90992L41.1022 9.12764L41.9149 9.05712C42.1264 9.03876 42.2779 9.01174 42.3696 8.97543C42.4615 8.93929 42.5379 8.86435 42.6002 8.75385C42.6614 8.6426 42.6865 8.51897 42.6746 8.38261C42.6384 7.97311 42.3603 7.79151 41.839 7.83672L40.9949 7.90992ZM40.403 9.97581L39.9957 5.35937L40.764 5.29285L40.926 7.12861L42.0181 7.03375C42.4246 6.99842 42.7579 7.10058 43.0191 7.33895C43.2804 7.5773 43.4298 7.90877 43.4672 8.33333C43.4977 8.67929 43.429 9.00149 43.2609 9.30089C43.0931 9.60049 42.763 9.77103 42.2699 9.81372L40.403 9.97581ZM36.5215 10.5841L35.6302 6.03531L36.3872 5.88927L36.7379 7.67911L38.2275 7.39186L37.8768 5.60223L38.637 5.45561L39.5283 10.0044L38.7681 10.151L38.3784 8.16201L36.8888 8.44906L37.2785 10.4382L36.5215 10.5841ZM32.7816 11.5222L31.4939 7.06776L32.2351 6.857L32.7418 8.60958L34.2005 8.19466L33.6937 6.44212L34.4382 6.23041L35.726 10.6847L34.9816 10.8964L34.4184 8.94875L32.9597 9.36368L33.5229 11.3113L32.7816 11.5222ZM29.4626 12.6551L27.7884 8.32909L30.4429 7.31829L30.7263 8.05056L28.7917 8.78708L29.1629 9.74612L30.9604 9.06177L31.2421 9.7898L29.4447 10.4744L29.9004 11.6519L31.9 10.8904L32.1821 11.6198L29.4626 12.6551ZM25.7672 11.975L26.2552 13.115L26.916 12.8367C27.2054 12.715 27.3841 12.6221 27.4536 12.5578C27.523 12.4933 27.5666 12.4046 27.5849 12.2928C27.602 12.1811 27.5824 12.0581 27.5242 11.9221C27.4642 11.7819 27.3855 11.6804 27.2877 11.615C27.1888 11.5497 27.0831 11.5205 26.9705 11.5282C26.8568 11.5362 26.6474 11.6043 26.343 11.7326L25.7672 11.975ZM25.0412 10.2785L25.4634 11.2648L25.9329 11.0671C26.2145 10.9486 26.3863 10.8703 26.4494 10.8321C26.5625 10.7621 26.6348 10.6719 26.6686 10.5603C26.7014 10.4492 26.6875 10.3227 26.6268 10.1807C26.5728 10.0546 26.5019 9.96363 26.4122 9.90878C26.3226 9.85411 26.2346 9.83365 26.1471 9.84695C26.0599 9.86144 25.8284 9.9472 25.4529 10.1052L25.0412 10.2785ZM24.0276 9.86745L25.4395 9.27306C25.8239 9.11101 26.1099 9.03163 26.2965 9.03625C26.4823 9.04011 26.6673 9.10755 26.8511 9.23889C27.0334 9.36948 27.1732 9.54738 27.2686 9.76988C27.3565 9.9754 27.39 10.1806 27.3687 10.3851C27.3475 10.5898 27.2813 10.7631 27.1691 10.9043C27.4098 10.8894 27.627 10.9468 27.8215 11.076C28.0169 11.2035 28.1689 11.3963 28.2786 11.6524C28.4112 11.9625 28.4478 12.2576 28.389 12.5344C28.3306 12.812 28.2089 13.0192 28.0252 13.1562C27.8969 13.2512 27.5732 13.4087 27.0535 13.6275L25.8529 14.133L24.0276 9.86745ZM23.7775 15.235L21.8959 11.868L20.9006 12.4152L20.5174 11.7293L23.1793 10.2657L23.5627 10.9517L22.5703 11.4971L24.4519 14.8641L23.7775 15.235ZM20.7503 14.9609L21.5302 14.7695C21.7341 15.2615 21.7943 15.6818 21.7102 16.0328C21.6255 16.3828 21.4202 16.6715 21.0948 16.8975C20.686 17.1815 20.244 17.2553 19.7698 17.1195C19.2219 16.9626 18.7322 16.5773 18.2999 15.9648C17.8426 15.3169 17.6321 14.7083 17.6687 14.1375C17.7005 13.6426 17.9312 13.2454 18.3634 12.9453C18.7145 12.7013 19.0926 12.6165 19.4975 12.6895C19.7857 12.7422 20.0866 12.9072 20.4004 13.1859L19.9018 13.8023C19.7166 13.6242 19.5259 13.5219 19.3293 13.4954C19.1324 13.4687 18.953 13.5116 18.7918 13.6236C18.5602 13.7845 18.4416 14.0156 18.4372 14.3177C18.4319 14.619 18.5922 15.0001 18.918 15.4616C19.2554 15.9399 19.567 16.2304 19.852 16.3329C20.1374 16.4363 20.3937 16.4085 20.6218 16.2501C20.7894 16.1338 20.8882 15.9688 20.919 15.7566C20.9499 15.5427 20.894 15.2773 20.7503 14.9609ZM15.1457 16.4326L15.9614 17.4683L16.2981 17.2074C16.5246 17.0318 16.6658 16.8975 16.7225 16.8029C16.7784 16.7092 16.8004 16.6004 16.7867 16.4782C16.7741 16.3551 16.7209 16.2348 16.6265 16.1149C16.5312 15.9941 16.4237 15.9119 16.3055 15.8705C16.186 15.8292 16.0763 15.8251 15.9747 15.8574C15.874 15.8902 15.6968 16.0055 15.4422 16.2027L15.1457 16.4326ZM16.9273 19.9371L14.0512 16.2856L15.031 15.5263C15.3961 15.2433 15.6485 15.0764 15.7881 15.0242C16.0115 14.9418 16.2541 14.9482 16.5151 15.0415C16.777 15.1355 17.0224 15.3277 17.2512 15.6184C17.4596 15.8827 17.583 16.1431 17.6233 16.3992C17.6637 16.6555 17.6362 16.8782 17.5421 17.0673C17.4492 17.2559 17.2183 17.4937 16.8496 17.7793L16.4502 18.089L17.5351 19.4662L16.9273 19.9371ZM14.297 19.9528L12.6697 19.1618L13.584 20.7111L14.297 19.9528ZM16.6196 20.1701L16.0461 20.7801L15.0411 20.3049L13.9983 21.4142L14.5595 22.3613L13.9986 22.958L11.599 18.7158L12.1575 18.1216L16.6196 20.1701ZM9.9714 21.7963L9.33322 22.7347C10.4758 23.499 11.2732 24.1575 11.7215 24.71L12.5359 23.5122L9.9714 21.7963ZM12.9673 22.878L13.1527 22.6053L14.6516 23.608L14.297 24.1295L13.4538 23.5653L12.1009 25.5546L12.9441 26.1189L12.5897 26.6402L11.0907 25.6375L11.2689 25.3754C11.0686 25.0917 10.7942 24.7922 10.4493 24.4795C10.1029 24.1672 9.54976 23.7554 8.78872 23.2462L8.27111 22.8998L9.74979 20.7254L12.9673 22.878ZM9.652 27.1395L6.02557 26.8747L6.41911 26.1084L8.98385 26.4154L7.17277 24.6414L7.53617 23.9338L10.1134 26.6738C10.4269 27.009 10.6283 27.2827 10.7186 27.4944C10.8086 27.7044 10.8055 27.9027 10.711 28.0864C10.6203 28.2632 10.5217 28.4121 10.4168 28.5334L9.79457 28.2189C9.8602 28.1104 9.9079 28.0267 9.93811 27.968C10.0224 27.8036 10.0474 27.6696 10.0117 27.5682C9.97547 27.465 9.85592 27.3223 9.652 27.1395ZM8.06448 29.5962L8.47969 28.9139C8.97471 29.1187 9.31686 29.3736 9.50751 29.6808C9.6972 29.9879 9.75776 30.336 9.68881 30.7239C9.60215 31.2114 9.34218 31.5736 8.91025 31.8102C8.41095 32.0835 7.78991 32.1544 7.04754 32.0246C6.26237 31.8872 5.67969 31.6046 5.2986 31.1753C4.96829 30.803 4.84819 30.3603 4.93989 29.845C5.01413 29.4264 5.22127 29.1011 5.55956 28.8687C5.80101 28.704 6.1315 28.6095 6.55193 28.5865L6.63881 29.3719C6.38076 29.376 6.17317 29.4374 6.01503 29.5566C5.85692 29.6758 5.76071 29.8318 5.72642 30.0242C5.67736 30.3004 5.75838 30.5469 5.97045 30.7638C6.18156 30.9804 6.56675 31.1376 7.12603 31.2353C7.70557 31.3367 8.13305 31.3238 8.40763 31.1965C8.68299 31.0694 8.84442 30.8699 8.89294 30.5977C8.92835 30.398 8.88065 30.2121 8.75115 30.0405C8.62069 29.8675 8.39165 29.7192 8.06448 29.5962ZM6.43256 35.3356C6.96166 35.4281 7.37587 35.3976 7.67559 35.2454C7.9759 35.0918 8.15252 34.8685 8.20511 34.5732C8.25766 34.2765 8.16966 34.0082 7.94179 33.7667C7.71415 33.5254 7.32876 33.3582 6.78446 33.2629C6.25087 33.1696 5.83995 33.1952 5.55018 33.3406C5.26141 33.4853 5.08975 33.7117 5.03535 34.0188C4.9806 34.3257 5.06443 34.5989 5.28768 34.8363C5.51145 35.0748 5.89274 35.2411 6.43256 35.3356ZM6.32526 36.1188C5.77686 36.023 5.33986 35.8644 5.01413 35.641C4.68806 35.4184 4.46087 35.1617 4.33359 34.8722C4.20597 34.5826 4.17518 34.2527 4.24087 33.8832C4.33633 33.3474 4.61929 32.9477 5.0918 32.6821C5.56401 32.4173 6.18097 32.351 6.94277 32.4843C7.71183 32.6188 8.28202 32.9027 8.65145 33.3352C8.9794 33.7159 9.09446 34.1741 8.99887 34.7118C8.90245 35.2539 8.63684 35.6477 8.20295 35.8951C7.70676 36.1766 7.08066 36.2509 6.32526 36.1188ZM9.03897 39.4615L4.50638 40.4173L3.94559 37.8009L4.7192 37.6379L5.11952 39.5059L8.8787 38.7134L9.03897 39.4615ZM3.90146 43.9272L3.82721 43.5799C4.12146 43.5378 4.3637 43.5726 4.5512 43.6842C4.73973 43.7966 4.85606 43.9608 4.90259 44.1771C4.94913 44.3945 4.91012 44.5913 4.78387 44.7702C4.65864 44.9477 4.45198 45.0785 4.1656 45.1598L4.09135 44.8136C4.38492 44.7242 4.50296 44.5438 4.44514 44.2736C4.38765 44.0043 4.20563 43.8882 3.90146 43.9272ZM10.1001 44.6531L5.53034 45.6166L5.37726 44.9021L8.42241 44.2602L5.05519 43.3993L4.89404 42.6479L9.46388 41.6844L9.61696 42.3989L6.63686 43.0271L9.93828 43.8984L10.1001 44.6531ZM11.8853 48.0595L7.79925 50.3061L7.44228 49.6674L10.1652 48.1704L6.69136 48.3235L6.31592 47.6517L10.402 45.4051L10.7589 46.0439L8.09408 47.509L11.5083 47.3848L11.8853 48.0595ZM13.8428 50.6079L10.1613 53.4607L9.68649 52.858L11.2534 51.6438C11.1313 51.5219 11.0113 51.4644 10.8974 51.4705C10.7819 51.4763 10.5484 51.5478 10.1975 51.6842C9.84597 51.8198 9.56886 51.8922 9.36771 51.9015C9.16673 51.9105 9.00995 51.8748 8.9007 51.7937C8.79125 51.7128 8.63235 51.5513 8.42282 51.3098L8.97492 50.882L9.0417 50.967C9.17644 51.1379 9.3079 51.2223 9.43566 51.2218C9.56205 51.221 9.76515 51.1634 10.0425 51.0512C10.3208 50.9384 10.5161 50.876 10.6269 50.8642C10.7377 50.8509 10.8705 50.8669 11.024 50.9107C10.9753 50.7352 10.9788 50.5573 11.0374 50.3776C11.0945 50.1978 11.2222 49.9359 11.4212 49.5926L12.1062 48.4031L12.6654 49.1132L11.9986 50.2117C11.8269 50.4914 11.7203 50.7014 11.675 50.842C11.6306 50.9818 11.6584 51.119 11.7581 51.2525L13.3681 50.005L13.8428 50.6079ZM13.5459 52.8632L13.2333 52.129C13.6913 51.8522 14.1005 51.7276 14.4631 51.7551C14.8249 51.7835 15.1445 51.9393 15.4204 52.2227C15.7671 52.5787 15.9096 53.0002 15.8488 53.486C15.7782 54.0471 15.4711 54.5874 14.9287 55.1068C14.3552 55.6562 13.7821 55.9575 13.208 56.011C12.7102 56.0574 12.2787 55.8933 11.9122 55.5169C11.6144 55.2111 11.4707 54.854 11.48 54.4458C11.4876 54.1551 11.6047 53.8344 11.8331 53.4837L12.5248 53.8756C12.3766 54.085 12.3046 54.2878 12.3089 54.4844C12.3129 54.6817 12.3838 54.8505 12.5205 54.9911C12.717 55.1928 12.9657 55.2727 13.2674 55.2299C13.5681 55.1879 13.9227 54.9712 14.3311 54.5799C14.7544 54.1744 14.9951 53.8238 15.0528 53.5287C15.111 53.2328 15.043 52.9861 14.8497 52.7873C14.7075 52.6415 14.5279 52.5704 14.3118 52.5735C14.0941 52.5766 13.8384 52.673 13.5459 52.8632ZM17.5488 56.9109L18.3515 55.9621L17.8013 55.5043C17.5606 55.3038 17.3959 55.1881 17.3067 55.1559C17.2173 55.1238 17.1178 55.1255 17.0089 55.1603C16.9009 55.1957 16.7994 55.2689 16.7036 55.3821C16.6048 55.4987 16.5495 55.6144 16.5351 55.7305C16.5213 55.8476 16.5431 55.9544 16.6011 56.0504C16.66 56.1472 16.8163 56.3013 17.0695 56.5121L17.5488 56.9109ZM16.3544 58.3226L17.0488 57.5018L16.658 57.1765C16.4237 56.9816 16.2753 56.8652 16.2125 56.8269C16.0983 56.7587 15.9844 56.7357 15.8687 56.7566C15.7542 56.7778 15.6467 56.8476 15.5468 56.9658C15.458 57.0707 15.4086 57.1748 15.4 57.2789C15.3914 57.383 15.413 57.47 15.4646 57.5412C15.5172 57.6117 15.6993 57.7775 16.0118 58.0376L16.3544 58.3226ZM16.4454 59.4052L15.2705 58.4272C14.9505 58.1609 14.7492 57.9442 14.6687 57.7773C14.5877 57.6111 14.5643 57.4172 14.5988 57.1951C14.6335 56.9747 14.7297 56.7703 14.8863 56.5851C15.0311 56.4141 15.2 56.2915 15.3935 56.2173C15.5869 56.1429 15.7729 56.1228 15.9505 56.158C15.828 55.9519 15.7809 55.734 15.8085 55.5034C15.8344 55.2729 15.9386 55.051 16.119 54.8377C16.3371 54.5799 16.5856 54.4136 16.8609 54.3399C17.1369 54.2654 17.3782 54.2789 17.5848 54.379C17.7283 54.4493 18.0169 54.6639 18.4492 55.0239L19.4485 55.8553L16.4454 59.4052ZM21.1427 59.7564C21.4352 59.3096 21.5688 58.9194 21.5444 58.5862C21.5193 58.2523 21.3812 58.0037 21.1275 57.8402C20.873 57.6762 20.5894 57.6517 20.2763 57.7655C19.9635 57.8791 19.6576 58.1657 19.3565 58.6254C19.0615 59.0761 18.9248 59.4613 18.9464 59.7827C18.9678 60.1029 19.111 60.3478 19.3747 60.5176C19.6381 60.6874 19.9244 60.7176 20.2319 60.6067C20.5407 60.4956 20.844 60.2125 21.1427 59.7564ZM21.8276 60.1605C21.5244 60.6237 21.2064 60.9608 20.8718 61.1707C20.538 61.3816 20.2109 61.4889 19.8923 61.4919C19.5737 61.4952 19.2557 61.3944 18.9384 61.19C18.4785 60.8937 18.2181 60.4792 18.1561 59.9439C18.095 59.4093 18.2746 58.82 18.696 58.1765C19.1213 57.5269 19.6076 57.1172 20.1532 56.949C20.6346 56.7983 21.1049 56.8723 21.5666 57.1698C22.0319 57.4694 22.2936 57.8657 22.3536 58.3587C22.421 58.9215 22.2453 59.5225 21.8276 60.1605ZM25.107 59.2747L23.2848 62.6737L24.2895 63.2036L23.9183 63.896L21.2309 62.4786L21.6021 61.7863L22.6038 62.3146L24.426 58.9156L25.107 59.2747ZM26.521 61.7973L25.9249 61.2629C26.2221 60.8201 26.5398 60.5354 26.8802 60.4085C27.2199 60.2824 27.5762 60.2897 27.9469 60.4309C28.413 60.6084 28.7216 60.9306 28.8735 61.3963C29.0486 61.9345 29.0003 62.5528 28.7302 63.2509C28.4445 63.9891 28.0535 64.5026 27.5559 64.7917C27.1246 65.0423 26.6636 65.0747 26.1711 64.8871C25.7709 64.7349 25.4883 64.4713 25.323 64.0975C25.2059 63.8309 25.1756 63.4912 25.233 63.0774L26.027 63.1427C25.9818 63.3948 26.0028 63.6086 26.0907 63.7851C26.1785 63.9621 26.3146 64.0855 26.4985 64.1554C26.7623 64.2561 27.0219 64.2242 27.2768 64.0591C27.5315 63.8949 27.7605 63.5499 27.9641 63.0239C28.175 62.479 28.2437 62.0604 28.1701 61.7687C28.0969 61.4761 27.9302 61.281 27.6702 61.1819C27.4794 61.1093 27.2864 61.1201 27.0916 61.2136C26.8957 61.3077 26.7051 61.5022 26.521 61.7973ZM32.047 64.4307C32.204 63.9211 32.2238 63.5097 32.108 63.196C31.9911 62.8818 31.7892 62.6805 31.5 62.5928C31.2096 62.5049 30.9302 62.5588 30.6608 62.7537C30.3917 62.9484 30.1773 63.3075 30.0157 63.8317C29.8573 64.3457 29.833 64.7533 29.943 65.0564C30.0527 65.3583 30.2583 65.5547 30.5588 65.6459C30.8595 65.737 31.143 65.6878 31.4077 65.4971C31.6737 65.3059 31.8867 64.9507 32.047 64.4307ZM32.8176 64.6318C32.6548 65.1601 32.4429 65.5709 32.1794 65.8643C31.9173 66.1583 31.6328 66.3507 31.3274 66.4409C31.0221 66.5311 30.6883 66.5211 30.3265 66.4114C29.802 66.2524 29.4365 65.925 29.2283 65.4274C29.0209 64.9302 29.0297 64.3146 29.256 63.581C29.4842 62.8402 29.8379 62.3135 30.3158 62.0025C30.7364 61.726 31.209 61.6687 31.7356 61.8282C32.2661 61.9891 32.6279 62.2986 32.8226 62.756C33.0437 63.2787 33.0419 63.9043 32.8176 64.6318ZM35.1334 66.8753L35.454 65.6001L35.0394 65.4975C34.7605 65.4286 34.5669 65.4007 34.4567 65.4147C34.3479 65.4288 34.2482 65.4786 34.1592 65.5646C34.0692 65.6501 34.0065 65.7659 33.9693 65.9134C33.9319 66.0621 33.9329 66.197 33.9728 66.3148C34.0137 66.4336 34.0778 66.5219 34.166 66.5814C34.2542 66.6399 34.4548 66.7075 34.7683 66.785L35.1334 66.8753ZM36.8207 63.3251L35.6906 67.8213L34.484 67.5228C34.0345 67.4118 33.7465 67.3173 33.6189 67.24C33.4158 67.1164 33.2717 66.9229 33.1851 66.6613C33.0986 66.3986 33.1002 66.0888 33.1901 65.7307C33.2721 65.4052 33.4028 65.1485 33.5814 64.9592C33.7603 64.7699 33.9541 64.6544 34.1623 64.6113C34.3693 64.5679 34.7003 64.602 35.1543 64.7143L35.6462 64.836L36.0725 63.14L36.8207 63.3251Z" fill="#FFF100"/>
<path fill-rule="evenodd" clip-rule="evenodd" d="M43.6741 68.5392V65.0379H44.5589C44.6819 65.0336 44.805 65.0442 44.9255 65.0694C45.0377 65.096 45.1404 65.1527 45.2226 65.2334C45.3132 65.3305 45.3802 65.4471 45.4185 65.5741C45.4698 65.7287 45.4954 65.8907 45.4943 66.0536C45.5031 66.3195 45.4351 66.5822 45.2984 66.8106C45.1358 67.0338 44.8651 67.152 44.5905 67.1198H43.9585V68.5455L43.6741 68.5392ZM43.9964 66.7034H44.6284C44.7915 66.7197 44.9528 66.659 45.0646 66.5394C45.158 66.4 45.2025 66.2335 45.191 66.0662C45.195 65.9359 45.1691 65.8064 45.1151 65.6877C45.0759 65.5957 45.0038 65.5215 44.9129 65.4795C44.8144 65.4645 44.7143 65.4645 44.6158 65.4795H43.9838L43.9964 66.7034Z" fill="#FFE600"/>
<path fill-rule="evenodd" clip-rule="evenodd" d="M46.263 65.0379H46.5537V67.8138L47.8178 65.0379H48.1338V68.5393H47.8431V65.7698L46.579 68.5393H46.2567L46.263 65.0379Z" fill="#FFE600"/>
<path fill-rule="evenodd" clip-rule="evenodd" d="M49.0311 68.5393V65.0379H49.3534V66.4763H50.6175V65.0379H50.9398V68.5393H50.6175V66.8864H49.3534V68.5393H49.0311Z" fill="#FFE600"/>
<path fill-rule="evenodd" clip-rule="evenodd" d="M51.5403 68.5393L52.4693 66.7287L51.6477 65.0379H52.0332L52.4757 65.9401C52.5642 66.123 52.6274 66.2681 52.6653 66.3628C52.7222 66.2366 52.7854 66.1041 52.8612 65.9653L53.3416 65.0379H53.6892L52.8549 66.7035L53.7587 68.5393H53.3668L52.7348 67.2776L52.6337 67.0631L52.5262 67.3028L51.8942 68.5204L51.5403 68.5393Z" fill="#FFE600"/>
<path fill-rule="evenodd" clip-rule="evenodd" d="M43.2935 64.3503C42.6583 65.0353 42.3159 65.9407 42.3392 66.8738C42.3244 67.8055 42.6656 68.7078 43.2935 69.3973H42.769C42.1164 68.7206 41.7595 67.813 41.7767 66.8738C41.7663 65.9359 42.1222 65.0308 42.769 64.3503H43.2935Z" fill="#FFE600"/>
<path fill-rule="evenodd" clip-rule="evenodd" d="M54.6698 64.3503C55.3166 65.0308 55.6725 65.9359 55.6621 66.8738C55.6793 67.813 55.3224 68.7206 54.6698 69.3973H54.1452C54.7731 68.7078 55.1144 67.8055 55.0996 66.8738C55.1229 65.9407 54.7805 65.0353 54.1452 64.3503H54.6698Z" fill="#FFE600"/>
</svg>
